<svg width="100" height="100" viewBox="0 0 100 100" fill="none" xmlns="http://www.w3.org/2000/svg">
<path d="M50 0C77.6142 0 100 22.3858 100 50C100 77.6142 77.6142 100 50 100C22.3858 100 0 77.6142 0 50C0 22.3858 22.3858 0 50 0ZM59.7891 41.5195C56.9732 41.5195 54.7006 42.1596 52.9727 43.4395C51.2447 44.6875 50.3809 46.4963 50.3809 48.8643C50.3809 50.4321 50.797 51.7122 51.6289 52.7041C52.4608 53.6959 53.5647 54.4797 54.9404 55.0557C56.3164 55.5997 57.837 56.0316 59.501 56.3516L60.8447 56.5918C62.2527 56.8478 63.277 57.1836 63.917 57.5996C64.5569 57.9836 64.877 58.5443 64.877 59.2803C64.8768 60.0161 64.5401 60.6404 63.8682 61.1523C63.1962 61.6321 62.1565 61.872 60.749 61.8721C59.821 61.8721 58.9562 61.7443 58.1562 61.4883C57.3883 61.2003 56.7324 60.7357 56.1885 60.0957C55.6766 59.4558 55.3089 58.5758 55.085 57.4561L49.5166 58.8955C49.9326 61.3915 51.1323 63.3123 53.1162 64.6562C55.1002 66.0003 57.645 66.6719 60.749 66.6719C63.7888 66.6718 66.2052 66.0002 67.9971 64.6562C69.821 63.2803 70.7324 61.3436 70.7324 58.8477C70.7324 57.1838 70.3004 55.8721 69.4365 54.9121C68.6045 53.9201 67.4525 53.1683 65.9805 52.6562C64.5405 52.1123 62.9247 51.6803 61.1328 51.3604L59.7891 51.1201C58.7011 50.9281 57.8363 50.6557 57.1963 50.3037C56.5566 49.9198 56.2364 49.3439 56.2363 48.5762C56.2363 47.8723 56.5406 47.3283 57.1484 46.9443C57.7564 46.5283 58.6371 46.3203 59.7891 46.3203C60.9409 46.3204 61.901 46.576 62.6689 47.0879C63.4688 47.5999 63.9969 48.4639 64.2529 49.6797L69.8682 47.9521C69.3242 46.0323 68.1729 44.4799 66.4131 43.2959C64.6532 42.112 62.4449 41.5196 59.7891 41.5195ZM74.1123 32.4004V66H80.1602V53.9043C80.1602 51.6963 80.6723 49.9836 81.6963 48.7676C82.7203 47.5196 84.1607 46.8955 86.0166 46.8955C87.6485 46.8955 88.8968 47.3443 89.7607 48.2402C90.6565 49.1362 91.1044 50.4799 91.1045 52.2715V66H97.1523V51.792C97.1523 49.808 96.768 48.0794 96 46.6074C95.232 45.1037 94.1441 43.9354 92.7363 43.1035C91.3604 42.2397 89.7445 41.8076 87.8887 41.8076C86.4808 41.8076 85.3127 41.984 84.3848 42.3359C83.4888 42.6559 82.7686 43.072 82.2246 43.584C81.6806 44.096 81.2804 44.6081 81.0244 45.1201H80.1602V32.4004H74.1123Z" fill="#030712"/>
</svg>
