<svg width="135" height="32" viewBox="0 0 135 32" fill="none" xmlns="http://www.w3.org/2000/svg">
<path d="M38.4453 22.4732H47.7737V19.6635H41.7608V9.08008H38.4453V22.4732Z" fill="#E5E7EB"/>
<path d="M53.3005 20.5998C51.9705 20.5998 51.2775 19.4384 51.2775 17.6964C51.2775 15.9543 51.9705 14.7742 53.3005 14.7742C54.6304 14.7742 55.3422 15.9543 55.3422 17.6964C55.3422 19.4384 54.6304 20.5998 53.3005 20.5998ZM53.3192 22.7727C56.41 22.7727 58.433 20.5811 58.433 17.6964C58.433 14.8117 56.41 12.6201 53.3192 12.6201C50.2472 12.6201 48.1867 14.8117 48.1867 17.6964C48.1867 20.5811 50.2472 22.7727 53.3192 22.7727Z" fill="#E5E7EB"/>
<path d="M63.7828 25.7885C65.2064 25.7885 66.4615 25.4701 67.3044 24.7208C68.0724 24.0278 68.5782 22.9788 68.5782 21.5364V12.8824H65.656V13.9126H65.6185C65.0566 13.1072 64.1949 12.6014 62.9212 12.6014C60.5423 12.6014 58.8939 14.587 58.8939 17.3967C58.8939 20.3376 60.8982 21.9485 63.0523 21.9485C64.2137 21.9485 64.9442 21.4803 65.5062 20.8434H65.5811V21.7987C65.5811 22.9601 65.0379 23.6344 63.7454 23.6344C62.7339 23.6344 62.2281 23.2036 62.0595 22.6978H59.0999C59.3996 24.7021 61.1417 25.7885 63.7828 25.7885ZM63.7641 19.682C62.6215 19.682 61.8722 18.7454 61.8722 17.3031C61.8722 15.842 62.6215 14.9054 63.7641 14.9054C65.0379 14.9054 65.7122 15.9919 65.7122 17.2843C65.7122 18.633 65.0941 19.682 63.7641 19.682Z" fill="#E5E7EB"/>
<path d="M74.5867 20.5998C73.2567 20.5998 72.5637 19.4384 72.5637 17.6964C72.5637 15.9543 73.2567 14.7742 74.5867 14.7742C75.9167 14.7742 76.6285 15.9543 76.6285 17.6964C76.6285 19.4384 75.9167 20.5998 74.5867 20.5998ZM74.6054 22.7727C77.6962 22.7727 79.7194 20.5811 79.7194 17.6964C79.7194 14.8117 77.6962 12.6201 74.6054 12.6201C71.5334 12.6201 69.4729 14.8117 69.4729 17.6964C69.4729 20.5811 71.5334 22.7727 74.6054 22.7727Z" fill="#E5E7EB"/>
<path d="M80.6107 22.4732H83.664V12.8826H80.6107V22.4732ZM80.6107 11.5527H83.664V9.08008H80.6107V11.5527Z" fill="#E5E7EB"/>
<path d="M84.9884 25.6387H88.0416V21.4803H88.0791C88.6785 22.2857 89.5589 22.7727 90.7952 22.7727C93.3053 22.7727 94.9724 20.7872 94.9724 17.6777C94.9724 14.793 93.4176 12.6014 90.8701 12.6014C89.5589 12.6014 88.6223 13.1821 87.9667 14.0438H87.9105V12.8824H84.9884V25.6387ZM90.0085 20.4125C88.6973 20.4125 87.948 19.3448 87.948 17.7901C87.948 16.2354 88.6223 15.0553 89.9523 15.0553C91.2635 15.0553 91.8816 16.1417 91.8816 17.7901C91.8816 19.4198 91.1698 20.4125 90.0085 20.4125Z" fill="#E5E7EB"/>
<path d="M99.9441 22.7727C102.454 22.7727 104.309 21.6863 104.309 19.5883C104.309 17.1345 102.323 16.7037 100.637 16.4227C99.4196 16.1979 98.3332 16.1042 98.3332 15.4299C98.3332 14.8305 98.9139 14.5495 99.6631 14.5495C100.506 14.5495 101.087 14.8118 101.199 15.6734H104.009C103.859 13.7815 102.398 12.6014 99.6819 12.6014C97.4153 12.6014 95.5422 13.6504 95.5422 15.6734C95.5422 17.9212 97.3217 18.3708 98.9888 18.6518C100.263 18.8765 101.424 18.9702 101.424 19.8319C101.424 20.45 100.843 20.7872 99.9254 20.7872C98.9139 20.7872 98.277 20.3189 98.1646 19.3636H95.2799C95.3736 21.4802 97.1344 22.7727 99.9441 22.7727Z" fill="#E5E7EB"/>
<path d="M108.455 22.7539C109.785 22.7539 110.628 22.2294 111.321 21.2928H111.378V22.4729H114.3V12.8823H111.246V18.2396C111.246 19.3822 110.609 20.1689 109.561 20.1689C108.586 20.1689 108.118 19.5882 108.118 18.5393V12.8823H105.084V19.1761C105.084 21.3116 106.245 22.7539 108.455 22.7539Z" fill="#E5E7EB"/>
<path d="M115.628 22.473H118.681V17.097C118.681 15.9544 119.243 15.1489 120.199 15.1489C121.116 15.1489 121.547 15.7483 121.547 16.7786V22.473H124.601V17.097C124.601 15.9544 125.144 15.1489 126.118 15.1489C127.036 15.1489 127.466 15.7483 127.466 16.7786V22.473H130.52V16.2354C130.52 14.0812 129.433 12.6014 127.26 12.6014C126.024 12.6014 124.994 13.1259 124.245 14.2873H124.207C123.72 13.257 122.765 12.6014 121.51 12.6014C120.124 12.6014 119.206 13.257 118.606 14.2498H118.55V12.8824H115.628V22.473Z" fill="#E5E7EB"/>
<path fill-rule="evenodd" clip-rule="evenodd" d="M9.31035 5.99759C8.45196 6.5978 7.67573 7.30745 7.0019 8.10631C9.75549 7.85067 13.2538 8.2681 17.3153 10.2989C21.6525 12.4674 25.145 12.5407 27.5756 12.0719C27.355 11.4041 27.0773 10.7624 26.7485 10.1523C23.9661 10.4458 20.3991 10.0573 16.2421 7.97886C13.6023 6.65897 11.2754 6.11527 9.31035 5.99759ZM25.1231 7.83886C22.9259 5.38387 19.7327 3.83887 16.1787 3.83887C15.135 3.83887 14.1223 3.97213 13.1569 4.22256C14.4644 4.57932 15.8534 5.10126 17.3153 5.83223C20.3589 7.35398 22.9865 7.84396 25.1231 7.83886ZM28.0952 14.4157C25.1588 14.9956 21.104 14.8765 16.2421 12.4455C11.6967 10.1728 8.07897 10.2014 5.63905 10.7437C5.51311 10.7716 5.39014 10.801 5.27013 10.8316C4.95068 11.5264 4.69569 12.2569 4.51273 13.0156C4.70814 12.9634 4.91007 12.9137 5.11841 12.8674C8.07846 12.2096 12.2608 12.2382 17.3153 14.7655C21.8608 17.0382 25.4785 17.0096 27.9184 16.4674C28.002 16.4488 28.0844 16.4296 28.1654 16.4098C28.1743 16.2206 28.1787 16.0303 28.1787 15.8389C28.1787 15.3574 28.1504 14.8825 28.0952 14.4157ZM27.7736 18.9422C24.8657 19.4506 20.9289 19.2555 16.2421 16.9121C11.6967 14.6395 8.07897 14.6681 5.63905 15.2103C5.09746 15.3306 4.61025 15.4772 4.18047 15.6319C4.1793 15.7007 4.17871 15.7697 4.17871 15.8389C4.17871 22.4663 9.55129 27.8389 16.1787 27.8389C21.733 27.8389 26.4059 24.0654 27.7736 18.9422Z" fill="#38BDF8"/>
</svg>
