<svg width="135" height="32" viewBox="0 0 135 32" fill="none" xmlns="http://www.w3.org/2000/svg">
<path d="M38.4456 22.4732H47.7739V19.6635H41.7611V9.08008H38.4456V22.4732Z" fill="#030712"/>
<path d="M53.3007 20.5998C51.9708 20.5998 51.2777 19.4384 51.2777 17.6964C51.2777 15.9543 51.9708 14.7742 53.3007 14.7742C54.6307 14.7742 55.3425 15.9543 55.3425 17.6964C55.3425 19.4384 54.6307 20.5998 53.3007 20.5998ZM53.3195 22.7727C56.4102 22.7727 58.4332 20.5811 58.4332 17.6964C58.4332 14.8117 56.4102 12.6201 53.3195 12.6201C50.2475 12.6201 48.187 14.8117 48.187 17.6964C48.187 20.5811 50.2475 22.7727 53.3195 22.7727Z" fill="#030712"/>
<path d="M63.7831 25.7885C65.2067 25.7885 66.4617 25.4701 67.3046 24.7208C68.0726 24.0278 68.5784 22.9788 68.5784 21.5364V12.8824H65.6563V13.9126H65.6188C65.0568 13.1072 64.1952 12.6014 62.9214 12.6014C60.5425 12.6014 58.8941 14.587 58.8941 17.3967C58.8941 20.3376 60.8984 21.9485 63.0525 21.9485C64.2139 21.9485 64.9445 21.4803 65.5064 20.8434H65.5813V21.7987C65.5813 22.9601 65.0381 23.6344 63.7456 23.6344C62.7341 23.6344 62.2284 23.2036 62.0598 22.6978H59.1002C59.3999 24.7021 61.1419 25.7885 63.7831 25.7885ZM63.7644 19.682C62.6217 19.682 61.8725 18.7454 61.8725 17.3031C61.8725 15.842 62.6217 14.9054 63.7644 14.9054C65.0381 14.9054 65.7125 15.9919 65.7125 17.2843C65.7125 18.633 65.0943 19.682 63.7644 19.682Z" fill="#030712"/>
<path d="M74.5869 20.5998C73.257 20.5998 72.5639 19.4384 72.5639 17.6964C72.5639 15.9543 73.257 14.7742 74.5869 14.7742C75.9169 14.7742 76.6287 15.9543 76.6287 17.6964C76.6287 19.4384 75.9169 20.5998 74.5869 20.5998ZM74.6057 22.7727C77.6964 22.7727 79.7197 20.5811 79.7197 17.6964C79.7197 14.8117 77.6964 12.6201 74.6057 12.6201C71.5337 12.6201 69.4732 14.8117 69.4732 17.6964C69.4732 20.5811 71.5337 22.7727 74.6057 22.7727Z" fill="#030712"/>
<path d="M80.611 22.4732H83.6642V12.8826H80.611V22.4732ZM80.611 11.5527H83.6642V9.08008H80.611V11.5527Z" fill="#030712"/>
<path d="M84.9886 25.6387H88.0419V21.4803H88.0794C88.6788 22.2857 89.5592 22.7727 90.7955 22.7727C93.3055 22.7727 94.9726 20.7872 94.9726 17.6777C94.9726 14.793 93.4179 12.6014 90.8704 12.6014C89.5592 12.6014 88.6226 13.1821 87.967 14.0438H87.9108V12.8824H84.9886V25.6387ZM90.0087 20.4125C88.6975 20.4125 87.9482 19.3448 87.9482 17.7901C87.9482 16.2354 88.6226 15.0553 89.9525 15.0553C91.2637 15.0553 91.8819 16.1417 91.8819 17.7901C91.8819 19.4198 91.1701 20.4125 90.0087 20.4125Z" fill="#030712"/>
<path d="M99.9444 22.7727C102.454 22.7727 104.309 21.6863 104.309 19.5883C104.309 17.1345 102.323 16.7037 100.637 16.4227C99.4199 16.1979 98.3334 16.1042 98.3334 15.4299C98.3334 14.8305 98.9141 14.5495 99.6634 14.5495C100.506 14.5495 101.087 14.8118 101.199 15.6734H104.009C103.859 13.7815 102.398 12.6014 99.6821 12.6014C97.4156 12.6014 95.5424 13.6504 95.5424 15.6734C95.5424 17.9212 97.3219 18.3708 98.989 18.6518C100.263 18.8765 101.424 18.9702 101.424 19.8319C101.424 20.45 100.843 20.7872 99.9256 20.7872C98.9141 20.7872 98.2772 20.3189 98.1649 19.3636H95.2802C95.3738 21.4802 97.1346 22.7727 99.9444 22.7727Z" fill="#030712"/>
<path d="M108.456 22.7539C109.786 22.7539 110.628 22.2294 111.322 21.2928H111.378V22.4729H114.3V12.8823H111.247V18.2396C111.247 19.3822 110.61 20.1689 109.561 20.1689C108.587 20.1689 108.118 19.5882 108.118 18.5393V12.8823H105.084V19.1761C105.084 21.3116 106.245 22.7539 108.456 22.7539Z" fill="#030712"/>
<path d="M115.628 22.473H118.682V17.097C118.682 15.9544 119.244 15.1489 120.199 15.1489C121.117 15.1489 121.548 15.7483 121.548 16.7786V22.473H124.601V17.097C124.601 15.9544 125.144 15.1489 126.118 15.1489C127.036 15.1489 127.467 15.7483 127.467 16.7786V22.473H130.52V16.2354C130.52 14.0812 129.434 12.6014 127.261 12.6014C126.024 12.6014 124.994 13.1259 124.245 14.2873H124.207C123.72 13.257 122.765 12.6014 121.51 12.6014C120.124 12.6014 119.206 13.257 118.607 14.2498H118.55V12.8824H115.628V22.473Z" fill="#030712"/>
<path fill-rule="evenodd" clip-rule="evenodd" d="M9.3106 5.99759C8.4522 6.5978 7.67598 7.30745 7.00215 8.10631C9.75573 7.85067 13.2541 8.2681 17.3156 10.2989C21.6527 12.4674 25.1452 12.5407 27.5758 12.0719C27.3553 11.4041 27.0776 10.7624 26.7487 10.1523C23.9663 10.4458 20.3993 10.0573 16.2423 7.97886C13.6025 6.65897 11.2756 6.11527 9.3106 5.99759ZM25.1234 7.83886C22.9261 5.38387 19.733 3.83887 16.1789 3.83887C15.1352 3.83887 14.1226 3.97213 13.1572 4.22256C14.4647 4.57932 15.8537 5.10126 17.3156 5.83223C20.3591 7.35398 22.9868 7.84396 25.1234 7.83886ZM28.0955 14.4157C25.1591 14.9956 21.1042 14.8765 16.2423 12.4455C11.6969 10.1728 8.07922 10.2014 5.6393 10.7437C5.51336 10.7716 5.39038 10.801 5.27037 10.8316C4.95093 11.5264 4.69594 12.2569 4.51298 13.0156C4.70839 12.9634 4.91031 12.9137 5.11865 12.8674C8.0787 12.2096 12.261 12.2382 17.3156 14.7655C21.861 17.0382 25.4787 17.0096 27.9187 16.4674C28.0022 16.4488 28.0846 16.4296 28.1656 16.4098C28.1745 16.2206 28.1789 16.0303 28.1789 15.8389C28.1789 15.3574 28.1506 14.8825 28.0955 14.4157ZM27.7738 18.9422C24.8659 19.4506 20.9291 19.2555 16.2423 16.9121C11.6969 14.6395 8.07922 14.6681 5.6393 15.2103C5.09771 15.3306 4.6105 15.4772 4.18071 15.6319C4.17954 15.7007 4.17896 15.7697 4.17896 15.8389C4.17896 22.4663 9.55153 27.8389 16.1789 27.8389C21.7332 27.8389 26.4061 24.0654 27.7738 18.9422Z" fill="#38BDF8"/>
</svg>
