<svg width="150" height="32" viewBox="0 0 150 32" fill="none" xmlns="http://www.w3.org/2000/svg">
<path d="M22.7414 14.5341C22.4002 14.8773 22.1391 15.2914 21.9763 15.747C21.8136 16.2027 21.7534 16.6886 21.7999 17.1702L21.7837 17.154C21.8316 17.721 21.7551 18.2914 21.5597 18.8257C21.3643 19.36 21.0547 19.8452 20.6525 20.2475C20.2502 20.6497 19.765 20.9594 19.2306 21.1547C18.6964 21.3501 18.1259 21.4266 17.559 21.3787L17.5752 21.3949C16.8972 21.3318 16.2161 21.4793 15.6249 21.8175C15.0338 22.1556 14.5613 22.6678 14.2719 23.2843C13.9825 23.9009 13.8903 24.5915 14.0078 25.2624C14.1255 25.9332 14.447 26.5514 14.9288 27.0327C15.4106 27.5141 16.0291 27.8351 16.7 27.952C17.3709 28.069 18.0615 27.9761 18.6778 27.6862C19.294 27.3963 19.8058 26.9234 20.1434 26.3319C20.481 25.7404 20.6279 25.0593 20.5642 24.3812L20.5813 24.3974C20.5334 23.8306 20.6098 23.26 20.8052 22.7257C21.0006 22.1914 21.3103 21.7062 21.7125 21.3039C22.1148 20.9017 22.6 20.592 23.1343 20.3967C23.6686 20.2013 24.2391 20.1248 24.806 20.1727L24.7889 20.1565C25.3428 20.2063 25.9003 20.1155 26.4098 19.8924C26.9192 19.6694 27.3642 19.3214 27.7033 18.8806C28.0425 18.4399 28.265 17.9206 28.3499 17.371C28.435 16.8214 28.3799 16.2592 28.1898 15.7365C27.9997 15.2139 27.6807 14.7477 27.2625 14.3811C26.8443 14.0145 26.3403 13.7594 25.7972 13.6395C25.2541 13.5197 24.6895 13.5387 24.1558 13.6951C23.6221 13.8515 23.1365 14.14 22.7441 14.5341H22.7414Z" fill="#EF4444"/>
<path d="M16.102 19.2729L16.0849 19.2567C16.5667 19.3052 17.0532 19.2461 17.5095 19.0835C17.9656 18.921 18.38 18.6592 18.7225 18.3169C19.065 17.9746 19.3272 17.5604 19.49 17.1044C19.6529 16.6483 19.7124 16.1619 19.6643 15.68L19.6814 15.6962C19.6335 15.1293 19.71 14.5589 19.9053 14.0245C20.1007 13.4903 20.4104 13.0051 20.8126 12.6028C21.2149 12.2005 21.7001 11.8908 22.2344 11.6955C22.7687 11.5001 23.3391 11.4237 23.9061 11.4715L23.889 11.4553C24.5671 11.519 25.2484 11.3719 25.8399 11.0342C26.4314 10.6965 26.9043 10.1845 27.1941 9.56807C27.4839 8.95168 27.5765 8.26089 27.4594 7.58991C27.3422 6.91894 27.0209 6.30046 26.5392 5.81883C26.0576 5.3372 25.4391 5.01586 24.7681 4.89866C24.0971 4.78145 23.4064 4.87407 22.79 5.16389C22.1735 5.45371 21.6616 5.92662 21.3238 6.51813C20.986 7.10962 20.839 7.79091 20.9027 8.46905L20.8865 8.45195C20.9345 9.01887 20.8582 9.58942 20.6629 10.1238C20.4675 10.6581 20.1579 11.1434 19.7556 11.5458C19.3533 11.948 18.868 12.2577 18.3337 12.453C17.7993 12.6483 17.2287 12.7246 16.6618 12.6766L16.678 12.6937C16.1962 12.6452 15.7096 12.7044 15.2535 12.8669C14.7973 13.0294 14.383 13.2913 14.0404 13.6335C13.6979 13.9758 13.4357 14.39 13.2728 14.8461C13.11 15.3021 13.0505 15.7886 13.0986 16.2704L13.0824 16.2542C13.1301 16.8211 13.0535 17.3915 12.8582 17.9257C12.6627 18.4599 12.3531 18.9451 11.9508 19.3473C11.5486 19.7495 11.0634 20.0591 10.5292 20.2546C9.99501 20.45 9.42458 20.5266 8.85774 20.4789L8.87394 20.4951C8.1958 20.4314 7.51451 20.5785 6.92301 20.9162C6.33151 21.254 5.8586 21.7659 5.56878 22.3824C5.27896 22.9988 5.18633 23.6896 5.30354 24.3605C5.42075 25.0315 5.74209 25.65 6.22372 26.1316C6.70535 26.6133 7.32383 26.9346 7.9948 27.0518C8.66578 27.1689 9.35657 27.0763 9.97297 26.7865C10.5894 26.4967 11.1013 26.0238 11.4391 25.4324C11.7769 24.8408 11.9239 24.1595 11.8602 23.4814L11.8773 23.4976C11.8294 22.9307 11.9059 22.3602 12.1013 21.8259C12.2966 21.2916 12.6063 20.8064 13.0085 20.4041C13.4109 20.0019 13.8961 19.6922 14.4303 19.4969C14.9646 19.3015 15.5351 19.225 16.102 19.2729Z" fill="#EF4444"/>
<path d="M10.0692 17.4664C10.4104 17.1233 10.6715 16.7091 10.8341 16.2534C10.9967 15.7978 11.0567 15.3117 11.0098 14.8302L11.0269 14.8464C10.979 14.2794 11.0554 13.7087 11.2509 13.1743C11.4464 12.6399 11.7562 12.1546 12.1587 11.7523C12.5612 11.35 13.0466 11.0404 13.5811 10.8451C14.1156 10.6498 14.6863 10.5736 15.2534 10.6217L15.2363 10.6055C15.9142 10.6691 16.5952 10.5219 17.1864 10.1842C17.7776 9.84647 18.2502 9.3346 18.54 8.71841C18.8296 8.1022 18.9221 7.41166 18.8049 6.74094C18.6877 6.07021 18.3664 5.45197 17.885 4.97052C17.4036 4.48906 16.7853 4.16782 16.1146 4.05062C15.4439 3.93341 14.7533 4.02595 14.1372 4.3156C13.5209 4.60524 13.0091 5.07791 12.6714 5.66913C12.3336 6.26035 12.1864 6.94136 12.25 7.61927L12.2338 7.60307C12.2817 8.16995 12.2052 8.74045 12.0098 9.27473C11.8144 9.80902 11.5048 10.2942 11.1025 10.6965C10.7003 11.0988 10.215 11.4084 9.68075 11.6038C9.14646 11.7991 8.57597 11.8756 8.0091 11.8278L8.0253 11.844C7.4714 11.7943 6.91392 11.8853 6.40452 12.1084C5.89513 12.3315 5.45029 12.6796 5.11125 13.1205C4.7722 13.5612 4.54992 14.0805 4.46497 14.6301C4.38004 15.1797 4.4352 15.7419 4.62535 16.2644C4.81549 16.7871 5.13449 17.2532 5.55275 17.6197C5.97102 17.9862 6.47503 18.2412 7.01808 18.3611C7.56113 18.4809 8.12565 18.4617 8.65933 18.3054C9.19301 18.149 9.67857 17.8604 10.071 17.4664H10.0692Z" fill="#EF4444"/>
<path d="M41.9375 7.09839H45.1055V22.5149H41.9375V7.09839Z" fill="#030712"/>
<path d="M46.9004 17.2364C46.896 16.1285 47.2205 15.0442 47.8327 14.1209C48.445 13.1976 49.3175 12.4767 50.3398 12.0497C51.3621 11.6226 52.4881 11.5086 53.5752 11.722C54.6624 11.9355 55.6617 12.4667 56.4467 13.2485C57.2317 14.0303 57.7669 15.0275 57.9847 16.1138C58.2025 17.2001 58.093 18.3266 57.6701 19.3506C57.2471 20.3745 56.5298 21.25 55.6089 21.8659C54.688 22.4819 53.6051 22.8108 52.4972 22.8108C51.7618 22.8192 51.0321 22.6809 50.3507 22.4039C49.6693 22.127 49.05 21.7171 48.5289 21.1982C48.0078 20.6791 47.5954 20.0614 47.3158 19.3812C47.0361 18.701 46.8949 17.9718 46.9004 17.2364ZM54.926 17.2364C54.9127 16.7588 54.759 16.2958 54.4841 15.9051C54.2092 15.5145 53.8252 15.2134 53.3801 15.0399C52.935 14.8662 52.4487 14.8276 51.9818 14.929C51.515 15.0303 51.0883 15.2669 50.7552 15.6094C50.4222 15.9518 50.1973 16.3849 50.1091 16.8544C50.0208 17.3238 50.0727 17.809 50.2587 18.2491C50.4446 18.6892 50.756 19.0646 51.1541 19.3286C51.5523 19.5926 52.0195 19.7334 52.4972 19.7334C52.8243 19.7422 53.1497 19.683 53.453 19.5597C53.7561 19.4364 54.0305 19.2516 54.2587 19.0171C54.4868 18.7824 54.664 18.503 54.7788 18.1966C54.8936 17.8901 54.9438 17.5632 54.926 17.2364Z" fill="#030712"/>
<path d="M70.7194 11.9562V21.9829C70.7194 25.5306 67.9524 27.0303 65.1439 27.0303C64.1551 27.1044 63.1649 26.9046 62.282 26.453C61.3993 26.0014 60.6578 25.3154 60.1391 24.4703L62.842 22.9077C63.0601 23.3482 63.4075 23.7116 63.8377 23.9494C64.268 24.187 64.7605 24.2877 65.2495 24.2378C65.562 24.2811 65.8803 24.2536 66.1808 24.1573C66.4812 24.0609 66.7562 23.8983 66.9853 23.6814C67.2144 23.4645 67.3918 23.1989 67.5044 22.904C67.617 22.6093 67.6618 22.293 67.6356 21.9786V21.0133C67.2647 21.4671 66.7925 21.8278 66.257 22.0662C65.7214 22.3046 65.1375 22.4141 64.5519 22.3861C63.1586 22.3421 61.8371 21.7578 60.8671 20.7566C59.8971 19.7556 59.3547 18.4162 59.3547 17.0223C59.3547 15.6284 59.8971 14.2891 60.8671 13.288C61.8371 12.2869 63.1586 11.7025 64.5519 11.6586C65.1375 11.6305 65.7214 11.7401 66.257 11.9785C66.7925 12.2169 67.2647 12.5775 67.6356 13.0314V11.9541L70.7194 11.9562ZM67.6367 17.0239C67.658 16.5134 67.526 16.0081 67.2577 15.5733C66.9894 15.1383 66.5971 14.7936 66.1313 14.5836C65.6655 14.3735 65.1475 14.3077 64.644 14.3945C64.1404 14.4813 63.6744 14.7168 63.3057 15.0709C62.9372 15.4248 62.683 15.8809 62.5758 16.3805C62.4687 16.8801 62.5135 17.4005 62.7047 17.8744C62.8957 18.3483 63.2242 18.7543 63.6479 19.0399C64.0716 19.3256 64.5711 19.4779 65.082 19.4773C65.4149 19.5005 65.7489 19.4538 66.0626 19.3401C66.3763 19.2264 66.6627 19.0481 66.9034 18.8171C67.144 18.586 67.3337 18.307 67.46 17.9981C67.5863 17.6893 67.6465 17.3575 67.6367 17.0239Z" fill="#030712"/>
<path d="M72.5141 17.2364C72.5098 16.1285 72.8341 15.0442 73.4465 14.1209C74.0588 13.1976 74.9313 12.4767 75.9536 12.0497C76.9759 11.6226 78.1019 11.5086 79.189 11.722C80.2762 11.9355 81.2755 12.4667 82.0605 13.2485C82.8454 14.0303 83.3807 15.0275 83.5985 16.1138C83.8163 17.2001 83.7068 18.3266 83.2838 19.3506C82.8609 20.3745 82.1436 21.25 81.2227 21.8659C80.3018 22.4819 79.2189 22.8108 78.1109 22.8108C77.3756 22.8192 76.6458 22.6809 75.9645 22.4039C75.2831 22.127 74.6638 21.7171 74.1427 21.1982C73.6215 20.6791 73.2092 20.0614 72.9296 19.3812C72.6499 18.701 72.5087 17.9718 72.5141 17.2364ZM80.5397 17.2364C80.5265 16.7588 80.3728 16.2958 80.0979 15.9051C79.8229 15.5145 79.4389 15.2134 78.9939 15.0399C78.5488 14.8662 78.0624 14.8276 77.5956 14.929C77.1287 15.0303 76.7021 15.2669 76.369 15.6094C76.0359 15.9518 75.8111 16.3849 75.7228 16.8544C75.6344 17.3238 75.6865 17.809 75.8724 18.2491C76.0583 18.6892 76.3698 19.0646 76.7679 19.3286C77.1661 19.5926 77.6332 19.7334 78.1109 19.7334C78.4381 19.7422 78.7635 19.683 79.0667 19.5597C79.3699 19.4364 79.6443 19.2516 79.8724 19.0171C80.1006 18.7824 80.2777 18.503 80.3925 18.1966C80.5074 17.8901 80.5575 17.5632 80.5397 17.2364Z" fill="#030712"/>
<path d="M85.1844 9.12663C85.1844 8.75069 85.2959 8.38319 85.5047 8.07061C85.7136 7.75802 86.0105 7.51439 86.3578 7.37053C86.7051 7.22665 87.0873 7.18901 87.4561 7.26235C87.8247 7.3357 88.1635 7.51673 88.4293 7.78257C88.6951 8.04839 88.8761 8.38708 88.9495 8.75581C89.0228 9.12452 88.9851 9.50671 88.8413 9.85403C88.6975 10.2014 88.4538 10.4982 88.1412 10.7071C87.8287 10.916 87.4612 11.0274 87.0852 11.0274C86.5827 11.0224 86.102 10.8206 85.7466 10.4652C85.3913 10.1098 85.1894 9.6292 85.1844 9.12663ZM85.5044 11.9565H88.6735V22.5165H85.5001L85.5044 11.9565Z" fill="#030712"/>
<path d="M102.353 17.2364C102.39 17.9343 102.288 18.6325 102.054 19.291C101.82 19.9494 101.458 20.5551 100.989 21.0732C100.52 21.5912 99.9526 22.0114 99.3206 22.3097C98.6885 22.6078 98.0038 22.7781 97.3057 22.8108C96.7186 22.8428 96.1318 22.7438 95.5877 22.521C95.0436 22.298 94.556 21.9569 94.1601 21.5222V26.7393H90.9921V11.9564H94.1601V12.9484C94.5561 12.514 95.0439 12.1731 95.5879 11.9505C96.132 11.7278 96.7187 11.6289 97.3057 11.6609C98.0039 11.6934 98.6888 11.8637 99.321 12.1619C99.9532 12.4602 100.52 12.8804 100.989 13.3986C101.458 13.9168 101.82 14.5227 102.054 15.1813C102.288 15.8399 102.39 16.5384 102.353 17.2364ZM99.1851 17.2364C99.1728 16.7422 99.0149 16.2626 98.7313 15.8576C98.4476 15.4527 98.0509 15.1404 97.5908 14.9599C97.1305 14.7793 96.6273 14.7385 96.144 14.8426C95.6607 14.9466 95.2188 15.1908 94.8737 15.5448C94.5285 15.8988 94.2954 16.3466 94.2036 16.8324C94.1117 17.3182 94.1652 17.8202 94.3573 18.2757C94.5493 18.7313 94.8715 19.12 95.2835 19.3934C95.6954 19.6667 96.1787 19.8125 96.6731 19.8124C97.0125 19.8275 97.3513 19.7707 97.6673 19.6457C97.9831 19.5208 98.2691 19.3304 98.5062 19.0872C98.7434 18.8438 98.9265 18.5533 99.0435 18.2344C99.1605 17.9154 99.2088 17.5753 99.1851 17.2364Z" fill="#030712"/>
<path d="M112.129 19.3474C112.129 21.7762 110.018 22.8109 107.738 22.8109C106.816 22.8943 105.891 22.6995 105.081 22.2514C104.272 21.8034 103.615 21.1229 103.197 20.2978L105.941 18.7351C106.052 19.1165 106.291 19.4483 106.617 19.675C106.943 19.9017 107.338 20.0098 107.733 19.981C108.493 19.981 108.874 19.7485 108.874 19.3271C108.874 18.1645 103.678 18.7778 103.678 15.1245C103.678 12.8215 105.621 11.661 107.818 11.661C108.643 11.6349 109.46 11.8307 110.185 12.228C110.909 12.6255 111.514 13.2098 111.935 13.9202L109.232 15.3773C109.114 15.1007 108.916 14.8651 108.665 14.6998C108.413 14.5346 108.118 14.4471 107.818 14.4482C107.268 14.4482 106.93 14.6615 106.93 15.0391C106.934 16.2434 112.129 15.4402 112.129 19.3474Z" fill="#030712"/>
<path d="M123.702 11.9563V22.5163H120.534V21.5232C120.168 21.9614 119.704 22.3067 119.179 22.5307C118.655 22.7547 118.085 22.851 117.515 22.8118C115.382 22.8118 113.569 21.2918 113.569 18.4384V11.9563H116.737V17.9744C116.71 18.226 116.739 18.4802 116.821 18.7195C116.902 18.9589 117.035 19.1775 117.21 19.3602C117.385 19.543 117.598 19.6854 117.833 19.7776C118.068 19.8699 118.321 19.9098 118.574 19.8944C119.735 19.8944 120.537 19.2192 120.537 17.7195V11.9595L123.702 11.9563Z" fill="#030712"/>
<path d="M141.867 16.0319V22.5151H138.699V16.3061C138.699 15.2501 138.192 14.5749 137.179 14.5749C136.123 14.5749 135.531 15.3141 135.531 16.5599V22.5151H132.364V16.3061C132.364 15.2501 131.857 14.5749 130.843 14.5749C129.787 14.5749 129.196 15.3141 129.196 16.5599V22.5151H126.028V11.9551H129.196V12.9258C129.525 12.4952 129.956 12.1536 130.449 11.9325C130.944 11.7113 131.486 11.6175 132.026 11.6597C132.568 11.6331 133.108 11.7476 133.593 11.9917C134.077 12.2358 134.49 12.6014 134.792 13.0527C135.143 12.5805 135.608 12.2051 136.143 11.9614C136.679 11.7178 137.268 11.614 137.854 11.6597C140.279 11.6607 141.867 13.3919 141.867 16.0319Z" fill="#030712"/>
<path d="M144.546 11.8913C145.844 11.8913 146.897 10.8387 146.897 9.54039C146.897 8.242 145.844 7.18945 144.546 7.18945C143.248 7.18945 142.195 8.242 142.195 9.54039C142.195 10.8387 143.248 11.8913 144.546 11.8913Z" fill="#030712"/>
</svg>
