<svg width="146" height="32" viewBox="0 0 146 32" fill="none" xmlns="http://www.w3.org/2000/svg">
<path fill-rule="evenodd" clip-rule="evenodd" d="M24.7829 4.5624C25.5571 3.81844 26.7776 3.81506 27.5559 4.5375L27.6296 4.60928L27.8812 4.87442C30.4305 7.62934 31.3804 10.8398 31.1368 13.9752C30.8896 17.1549 29.4291 20.1533 27.3917 22.5228C25.3555 24.8907 22.6371 26.7555 19.6986 27.5649C16.7231 28.3843 13.4688 28.1231 10.644 26.1196C8.24804 24.4202 7.33585 21.6737 7.27388 19.0056C5.92939 18.3431 4.51473 17.5197 3.03042 16.5183L2.63822 16.2507L2.55467 16.1901C1.71198 15.5433 1.51931 14.3462 2.13347 13.4674C2.74782 12.5886 3.94407 12.3502 4.84842 12.9088L4.93541 12.9654L5.29272 13.2096C6.18189 13.8095 7.03033 14.3295 7.8371 14.7785C8.35754 12.9435 9.21992 11.1818 10.356 9.72952C12.058 7.55393 14.6098 5.81408 17.7361 6.07367C20.552 6.30765 22.6326 7.76705 23.7066 9.82669C24.7464 11.8211 24.7618 14.2202 23.853 16.2834C22.9264 18.3867 21.0454 20.1391 18.3396 20.8611C16.3923 21.3807 14.111 21.345 11.537 20.6492V20.6502C10.5124 20.3731 9.43856 19.9904 8.31632 19.4934C8.06456 19.382 7.84544 19.5523 8.31632 19.8479C9.64154 20.7929 11.5084 21.585 12.0486 21.8509C12.3039 22.2659 12.6205 22.6062 12.9834 22.8636C14.6534 24.0481 16.607 24.2651 18.6232 23.7098C20.6763 23.1443 22.7341 21.7808 24.3303 19.9246C25.9251 18.0698 26.9534 15.8475 27.1228 13.6671C27.2827 11.6098 26.6918 9.49627 24.9117 7.57566L24.7357 7.39059L24.6655 7.31442C23.965 6.51767 24.0091 5.3063 24.7829 4.5624ZM17.4009 10.0601C16.1092 9.95284 14.7461 10.6359 13.5349 12.1842C12.6124 13.3633 11.9145 14.8954 11.5586 16.4719C14.0935 17.3425 15.9826 17.3484 17.2952 16.9983C18.8148 16.5928 19.7259 15.6748 20.1645 14.6793C20.6206 13.6436 20.5739 12.515 20.1315 11.6666C19.7232 10.8835 18.9012 10.1848 17.4009 10.0601Z" fill="#4B5563"/>
<path d="M92.3886 10.0016C91.2559 10.0016 90.5286 9.14711 90.6862 8.0008C90.8437 6.85451 91.8062 6 92.9395 6C94.0723 6 94.7995 6.85451 94.6419 8.0008C94.4844 9.14711 93.5219 10.0016 92.3886 10.0016Z" fill="#4B5563"/>
<path d="M89.2982 21.2352L90.7146 10.9394H93.8049L92.3886 21.2352H89.2982Z" fill="#4B5563"/>
<path fill-rule="evenodd" clip-rule="evenodd" d="M94.7304 16.1916L93.431 25.6329H96.5213L97.2813 20.1098C97.794 21.0269 98.7583 21.5063 99.9734 21.5063C102.281 21.5063 105.153 19.7972 105.646 16.2124C106.103 12.8986 104.143 10.6686 100.909 10.6686C97.7977 10.6686 95.2061 12.7319 94.7304 16.1916ZM102.532 16.0874C102.329 17.5672 101.24 18.5884 99.8395 18.5884C98.4383 18.5884 97.631 17.5672 97.8346 16.0874C98.0383 14.6076 99.1268 13.5864 100.527 13.5864C101.929 13.5864 102.736 14.6076 102.532 16.0874Z" fill="#4B5563"/>
<path d="M109.762 21.5063C107.146 21.5063 105.651 20.089 105.882 18.109H108.931C108.877 18.6509 109.232 18.9219 110.076 18.9219C111.024 18.9219 111.379 18.5884 111.439 18.1507C111.527 17.5086 110.894 17.4115 110.055 17.2827L110.052 17.2822C109.993 17.2732 109.934 17.264 109.873 17.2546C108.501 17.0461 106.242 16.6918 106.583 14.2116C106.87 12.1275 108.698 10.6686 111.232 10.6686C113.766 10.6686 115.129 12.1484 114.935 14.0032H111.927C111.91 13.5239 111.536 13.253 110.918 13.253C110.156 13.253 109.792 13.6489 109.735 14.0658C109.653 14.6627 110.315 14.7657 111.181 14.9007L111.307 14.9202C112.741 15.1287 114.932 15.5247 114.597 17.9632C114.304 20.089 112.378 21.5063 109.762 21.5063Z" fill="#4B5563"/>
<path d="M127.218 15.4413L126.421 21.2353H129.512L130.309 15.4413C130.498 14.0658 131.223 13.5864 132.151 13.5864C133.057 13.5864 133.651 14.0658 133.461 15.4413L132.664 21.2353H135.754L136.551 15.4413C136.741 14.0658 137.466 13.5864 138.372 13.5864C139.3 13.5864 139.893 14.0658 139.704 15.4413L138.906 21.2353H141.997L142.794 15.4413C143.25 12.1275 141.556 10.6686 139.083 10.6686C137.62 10.6686 136.348 11.2313 135.437 12.3151C134.823 11.2313 133.685 10.6686 132.243 10.6686C129.771 10.6686 127.675 12.1275 127.218 15.4413Z" fill="#4B5563"/>
<path d="M115.739 16.2748C115.26 19.7554 117.038 21.5061 120.046 21.5061C123.054 21.5061 125.317 19.7346 125.793 16.2748L126.527 10.9394H123.437L122.703 16.2748C122.479 17.9005 121.601 18.5882 120.448 18.5882C119.294 18.5882 118.606 17.9005 118.829 16.2748L119.563 10.9394H116.473L115.739 16.2748Z" fill="#4B5563"/>
<path fill-rule="evenodd" clip-rule="evenodd" d="M77.8188 16.0874C77.3891 19.2137 79.34 21.5063 82.554 21.5063C85.768 21.5063 88.3492 19.2137 88.7795 16.0874C89.2098 12.9611 87.2589 10.6686 84.0449 10.6686C80.831 10.6686 78.2491 12.9611 77.8188 16.0874ZM85.6479 16.0874C85.4443 17.5672 84.3558 18.5884 82.9552 18.5884C81.554 18.5884 80.7467 17.5672 80.9503 16.0874C81.154 14.6076 82.2425 13.5864 83.6431 13.5864C85.0443 13.5864 85.8516 14.6076 85.6479 16.0874Z" fill="#4B5563"/>
<path fill-rule="evenodd" clip-rule="evenodd" d="M67.9793 20.5382C66.7309 19.5818 66.1118 17.9888 66.3734 16.0874C66.8034 12.9611 69.3851 10.6686 72.5988 10.6686C75.8127 10.6686 77.7637 12.9611 77.334 16.0874C76.9182 19.1072 74.4952 21.3491 71.4345 21.4983C72.1552 21.9129 73.2024 22.2481 73.9721 22.4945C74.2291 22.5768 74.4552 22.6492 74.6279 22.7113C75.3267 22.888 75.7727 23.5468 75.6649 24.3324C75.5382 25.2534 74.6976 26 73.7867 26H68.8414C67.0205 26 65.7498 24.5067 66.0032 22.6646H71.277C70.0721 22.1932 68.7986 21.2502 67.9793 20.5382ZM71.5097 18.5884C72.9103 18.5884 73.9988 17.5672 74.2024 16.0874C74.4061 14.6076 73.5988 13.5864 72.1976 13.5864C70.797 13.5864 69.7085 14.6076 69.5049 16.0874C69.3013 17.5672 70.1085 18.5884 71.5097 18.5884Z" fill="#4B5563"/>
<path fill-rule="evenodd" clip-rule="evenodd" d="M54.9277 16.0874C54.4976 19.2137 56.4485 21.5063 59.6624 21.5063C62.8764 21.5063 65.4581 19.2137 65.8882 16.0874C66.3183 12.9611 64.3674 10.6686 61.1535 10.6686C57.9395 10.6686 55.3578 12.9611 54.9277 16.0874ZM62.7566 16.0874C62.553 17.5672 61.4649 18.5884 60.0639 18.5884C58.6629 18.5884 57.8557 17.5672 58.0593 16.0874C58.2628 14.6076 59.3511 13.5864 60.752 13.5864C62.153 13.5864 62.9602 14.6076 62.7566 16.0874Z" fill="#4B5563"/>
<path d="M44.0798 21.2353L45.9551 7.60483H49.2926L47.8475 18.1091H54.2136L53.7835 21.2353H44.0798Z" fill="#4B5563"/>
</svg>
