<svg width="154" height="32" viewBox="0 0 154 32" fill="none" xmlns="http://www.w3.org/2000/svg">
<g clip-path="url(#clip0_2785_2820)">
<path d="M20.0113 6.44034C20.5083 5.93986 21.1832 5.65869 21.886 5.65869C25.0479 5.65869 28.0277 5.65869 30.9622 5.65869C36.8642 5.65871 39.8197 12.8452 35.6463 17.0482L26.5557 26.2033C26.1384 26.6237 25.4248 26.326 25.4248 25.7315V17.668L26.4754 16.61C27.31 15.7694 26.7189 14.3321 25.5385 14.3321H12.1753L20.0113 6.44034Z" fill="#D1D5DB"/>
<path d="M17.5887 25.5598C17.0918 26.0603 16.4168 26.3415 15.714 26.3415C12.5521 26.3415 9.5723 26.3415 6.63784 26.3415C0.735792 26.3415 -2.21967 19.155 1.9537 14.952L11.0443 5.79685C11.4616 5.37655 12.1752 5.67422 12.1752 6.26862L12.1753 14.3321L11.1246 15.3902C10.29 16.2308 10.8811 17.6681 12.0615 17.6681L25.4248 17.668L17.5887 25.5598Z" fill="#D1D5DB"/>
<path d="M97.7458 10.831V21.9106H101.069V10.831H97.7458Z" fill="#D1D5DB"/>
<path d="M97.9773 8.98784C98.37 9.37223 98.8499 9.56446 99.4181 9.56446C99.9857 9.56446 100.463 9.37223 100.848 8.98784C101.241 8.6034 101.437 8.1366 101.437 7.58743C101.437 7.02452 101.241 6.55429 100.848 6.17673C100.463 5.79231 99.9857 5.6001 99.4181 5.6001C98.8499 5.6001 98.37 5.79231 97.9773 6.17673C97.5845 6.55429 97.3881 7.02452 97.3881 7.58743C97.3881 8.1366 97.5845 8.6034 97.9773 8.98784Z" fill="#D1D5DB"/>
<path fill-rule="evenodd" clip-rule="evenodd" d="M102.944 26.2354V10.831H106.099V11.9328H106.14C106.339 11.7411 106.553 11.566 106.783 11.4077C107.526 10.8996 108.381 10.6457 109.348 10.6457C110.197 10.6457 111.007 10.8619 111.778 11.2944C112.556 11.7268 113.187 12.3687 113.671 13.2199C114.154 14.0712 114.389 15.1318 114.376 16.4017C114.382 17.3628 114.245 18.2003 113.965 18.9142C113.685 19.6213 113.306 20.2082 112.829 20.675C112.353 21.1418 111.82 21.4919 111.231 21.7253C110.642 21.9587 110.046 22.0754 109.443 22.0754C108.489 22.0754 107.634 21.8145 106.877 21.2928C106.686 21.1597 106.506 21.0156 106.335 20.8603H106.267V26.2354H102.944ZM108.665 19.3569C109.155 19.3501 109.587 19.2231 109.959 18.976C110.33 18.7288 110.621 18.3787 110.831 17.9257C111.042 17.4726 111.144 16.944 111.136 16.3399C111.144 15.7221 111.038 15.1935 110.821 14.7542C110.61 14.308 110.313 13.9681 109.927 13.7348C109.541 13.4945 109.099 13.3778 108.602 13.3847C108.132 13.3778 107.711 13.4911 107.34 13.7245C106.968 13.9579 106.674 14.2977 106.457 14.7439C106.239 15.1832 106.131 15.7152 106.131 16.3399C106.131 16.944 106.239 17.4726 106.457 17.9257C106.681 18.3787 106.982 18.7288 107.361 18.976C107.74 19.2231 108.174 19.3501 108.665 19.3569Z" fill="#D1D5DB"/>
<path d="M117.575 21.7355C118.192 21.9621 118.837 22.0753 119.51 22.0753C120.282 22.0753 120.986 21.9278 121.624 21.6326C122.269 21.3374 122.784 20.9255 123.17 20.3969C123.563 19.8615 123.759 19.2471 123.759 18.5538C123.759 18.0046 123.64 17.5412 123.402 17.1637C123.17 16.7861 122.875 16.4772 122.518 16.2369C122.167 15.9967 121.806 15.8079 121.435 15.6706C121.063 15.5264 120.737 15.4166 120.456 15.3411C120.092 15.2381 119.742 15.1317 119.405 15.0219C119.069 14.9121 118.791 14.7816 118.574 14.6306C118.357 14.4796 118.248 14.2805 118.248 14.0333C118.248 13.7863 118.357 13.5803 118.574 13.4155C118.791 13.2508 119.065 13.1684 119.395 13.1684C119.787 13.1684 120.11 13.2714 120.362 13.4773C120.622 13.6832 120.818 13.8961 120.951 14.1157L123.506 13.0345C123.184 12.3206 122.637 11.7474 121.866 11.3149C121.102 10.8825 120.239 10.6662 119.279 10.6662C118.508 10.6662 117.82 10.807 117.218 11.0884C116.622 11.3698 116.149 11.7612 115.798 12.2623C115.454 12.7565 115.283 13.3297 115.283 13.9819C115.283 14.5997 115.43 15.1249 115.724 15.5573C116.019 15.9898 116.401 16.3467 116.871 16.6282C117.347 16.9028 117.852 17.119 118.385 17.277C118.617 17.3387 118.869 17.4073 119.142 17.4829C119.422 17.5584 119.689 17.6476 119.941 17.7506C120.194 17.8536 120.4 17.9771 120.562 18.1213C120.723 18.2655 120.804 18.4371 120.804 18.6362C120.804 18.794 120.748 18.9416 120.635 19.0789C120.531 19.2162 120.383 19.3295 120.194 19.4187C120.004 19.5011 119.784 19.5423 119.531 19.5423C119.055 19.5423 118.641 19.3981 118.29 19.1098C117.94 18.8215 117.677 18.516 117.502 18.1934L114.893 19.3157C115.132 19.8718 115.486 20.3592 115.956 20.7779C116.425 21.1898 116.965 21.509 117.575 21.7355Z" fill="#D1D5DB"/>
<path d="M137.268 21.9106V10.831H140.433V12.2417H140.491C140.739 11.9046 141.017 11.6197 141.327 11.387C141.958 10.9065 142.705 10.6662 143.567 10.6662C144.282 10.6662 144.889 10.8378 145.387 11.1811C145.77 11.4369 146.083 11.7802 146.325 12.2108H146.385C146.743 11.7636 147.178 11.4134 147.689 11.1605C148.355 10.831 149.081 10.6662 149.866 10.6662C150.616 10.6662 151.234 10.7967 151.717 11.0575C152.201 11.3115 152.58 11.6479 152.853 12.0666C153.126 12.4785 153.319 12.9316 153.431 13.4259C153.544 13.9132 153.6 14.3869 153.6 14.8468V21.9106H150.255V15.2484C150.255 14.6443 150.126 14.181 149.866 13.8583C149.614 13.5288 149.242 13.3641 148.752 13.3641C148.429 13.3641 148.142 13.4362 147.889 13.5803C147.644 13.7176 147.448 13.9269 147.301 14.2084C147.16 14.4899 147.09 14.8365 147.09 15.2484V21.9106H143.767V15.2484C143.767 14.6443 143.637 14.181 143.378 13.8583C143.118 13.5288 142.743 13.3641 142.252 13.3641C141.776 13.3641 141.38 13.5254 141.064 13.848C140.749 14.1638 140.591 14.6374 140.591 15.269V21.9106H137.268Z" fill="#D1D5DB"/>
<path d="M129.135 22.0753C128.357 22.0753 127.649 21.914 127.012 21.5914C126.373 21.2619 125.865 20.7814 125.486 20.1498C125.115 19.5114 124.929 18.7254 124.929 17.7918V10.831H128.252V17.3593C128.252 17.9977 128.421 18.4851 128.757 18.8215C129.1 19.151 129.518 19.3158 130.009 19.3158C130.373 19.3158 130.692 19.2368 130.966 19.0789C131.246 18.9211 131.463 18.698 131.618 18.4096C131.779 18.1144 131.859 17.7643 131.859 17.3593V10.831H135.182V18.0286C135.182 18.4268 135.242 18.7151 135.361 18.8936C135.481 19.072 135.722 19.2265 136.087 19.3569L134.909 22.0753C134.075 21.8626 133.465 21.5846 133.079 21.2413C132.885 21.0684 132.738 20.8693 132.638 20.6441H132.554C132.26 20.9331 131.934 21.1906 131.576 21.4164C130.867 21.8557 130.054 22.0753 129.135 22.0753Z" fill="#D1D5DB"/>
<path fill-rule="evenodd" clip-rule="evenodd" d="M90.55 22.0753C89.4629 22.0753 88.4708 21.8317 87.5738 21.3443C86.683 20.8569 85.9717 20.1841 85.4386 19.326C84.9128 18.4679 84.6502 17.4794 84.6502 16.3605C84.6502 15.2416 84.9128 14.253 85.4386 13.3949C85.9717 12.5369 86.683 11.8675 87.5738 11.387C88.4708 10.9065 89.4629 10.6662 90.55 10.6662C91.6575 10.6662 92.6564 10.9065 93.5472 11.387C94.4374 11.8675 95.1419 12.5369 95.6609 13.3949C96.1866 14.253 96.4492 15.2416 96.4492 16.3605C96.4492 17.4794 96.1866 18.4679 95.6609 19.326C95.1419 20.1841 94.434 20.8569 93.5364 21.3443C92.6462 21.8317 91.6507 22.0753 90.55 22.0753ZM90.55 19.2951C91.0684 19.2951 91.5347 19.1716 91.9484 18.9245C92.3621 18.6773 92.6881 18.3341 92.9263 17.8947C93.1646 17.4554 93.284 16.944 93.284 16.3605C93.284 15.7976 93.1686 15.2965 92.9371 14.8571C92.7056 14.4178 92.3864 14.0746 91.9801 13.8274C91.5732 13.5734 91.1035 13.4464 90.5709 13.4464C90.0452 13.4464 89.5715 13.57 89.151 13.8171C88.7373 14.0574 88.4114 14.3972 88.1731 14.8365C87.9349 15.2759 87.8154 15.7839 87.8154 16.3605C87.8154 16.944 87.9349 17.4554 88.1731 17.8947C88.4182 18.3341 88.7481 18.6773 89.1618 18.9245C89.5755 19.1716 90.0378 19.2951 90.55 19.2951Z" fill="#D1D5DB"/>
<path fill-rule="evenodd" clip-rule="evenodd" d="M74.8144 26.0603C75.5994 26.2868 76.4619 26.4001 77.4013 26.4001C78.2779 26.4001 79.0804 26.2903 79.8099 26.0706C80.5388 25.8578 81.1698 25.5352 81.7023 25.1027C82.2422 24.6702 82.6593 24.1348 82.9542 23.4963C83.2485 22.8579 83.3956 22.1166 83.3956 21.2722V10.8207H80.3775V11.9019H80.3147C80.1138 11.7136 79.8965 11.542 79.6622 11.387C78.9333 10.8996 78.0816 10.656 77.107 10.656C76.2655 10.656 75.4556 10.8653 74.6775 11.2841C73.8993 11.6959 73.2616 12.3138 72.7635 13.1375C72.2729 13.9544 72.0273 14.9807 72.0273 16.2164C72.0273 17.1431 72.171 17.9497 72.4585 18.6362C72.746 19.3226 73.128 19.8958 73.6051 20.3558C74.0889 20.8088 74.6249 21.1486 75.214 21.3751C75.8031 21.5948 76.3951 21.7047 76.991 21.7047C77.952 21.7047 78.8071 21.4472 79.5575 20.9324C79.7946 20.7673 80.0165 20.5854 80.2219 20.3866H80.2722V21.4575C80.2722 21.9861 80.0974 22.4117 79.7465 22.7343C79.3962 23.0639 78.9718 23.3042 78.4743 23.4552C77.9763 23.6062 77.4958 23.6817 77.0335 23.6817C76.4936 23.6817 75.9605 23.5959 75.4347 23.4243C74.9158 23.2595 74.4602 23.0604 74.068 22.8271L72.9741 25.3807C73.4228 25.6141 74.0363 25.8407 74.8144 26.0603ZM79.1472 18.6876C78.7618 18.9348 78.3164 19.0583 77.8116 19.0583C77.3136 19.0583 76.8756 18.9348 76.497 18.6876C76.1183 18.4336 75.8207 18.087 75.6033 17.6476C75.386 17.2014 75.2768 16.69 75.2768 16.1134C75.2768 15.5367 75.386 15.0356 75.6033 14.61C75.8275 14.1844 76.1359 13.8583 76.5286 13.6318C76.9214 13.3984 77.3662 13.2817 77.8642 13.2817C78.3617 13.2817 78.8003 13.3949 79.1789 13.6215C79.5575 13.848 79.8552 14.1741 80.0725 14.5997C80.2898 15.0185 80.3985 15.523 80.3985 16.1134C80.3985 16.6968 80.2864 17.2117 80.0623 17.6579C79.8376 18.0973 79.5326 18.4405 79.1472 18.6876Z" fill="#D1D5DB"/>
<path fill-rule="evenodd" clip-rule="evenodd" d="M65.2836 22.0753C64.1971 22.0753 63.205 21.8317 62.3074 21.3443C61.4172 20.8569 60.7053 20.1841 60.1728 19.326C59.647 18.4679 59.3839 17.4794 59.3839 16.3605C59.3839 15.2416 59.647 14.253 60.1728 13.3949C60.7053 12.5369 61.4172 11.8675 62.3074 11.387C63.205 10.9065 64.1971 10.6662 65.2836 10.6662C66.3912 10.6662 67.3906 10.9065 68.2808 11.387C69.171 11.8675 69.8756 12.5369 70.3945 13.3949C70.9203 14.253 71.1834 15.2416 71.1834 16.3605C71.1834 17.4794 70.9203 18.4679 70.3945 19.326C69.8756 20.1841 69.1676 20.8569 68.27 21.3443C67.3798 21.8317 66.3844 22.0753 65.2836 22.0753ZM65.2836 19.2951C65.8026 19.2951 66.2684 19.1716 66.682 18.9245C67.0957 18.6773 67.4217 18.3341 67.6605 17.8947C67.8988 17.4554 68.0176 16.944 68.0176 16.3605C68.0176 15.7976 67.9022 15.2965 67.6707 14.8571C67.4393 14.4178 67.1206 14.0746 66.7137 13.8274C66.3074 13.5734 65.8371 13.4464 65.3046 13.4464C64.7788 13.4464 64.3057 13.57 63.8847 13.8171C63.471 14.0574 63.145 14.3972 62.9067 14.8365C62.6685 15.2759 62.5491 15.7839 62.5491 16.3605C62.5491 16.944 62.6685 17.4554 62.9067 17.8947C63.1524 18.3341 63.4817 18.6773 63.8954 18.9245C64.3091 19.1716 64.7715 19.2951 65.2836 19.2951Z" fill="#D1D5DB"/>
<path d="M50.3999 6.73276V21.9106H59.4337V18.9039H53.8493V6.73276H50.3999Z" fill="#D1D5DB"/>
</g>
<defs>
<clipPath id="clip0_2785_2820">
<rect width="153.6" height="32" fill="white"/>
</clipPath>
</defs>
</svg>
