<svg width="133" height="32" viewBox="0 0 133 32" fill="none" xmlns="http://www.w3.org/2000/svg">
<path d="M38.4609 22.597H47.7893V19.7873H41.7765V9.20386H38.4609V22.597Z" fill="#030712"/>
<path d="M53.3153 20.7238C51.9854 20.7238 51.2923 19.5624 51.2923 17.8204C51.2923 16.0783 51.9854 14.8982 53.3153 14.8982C54.6453 14.8982 55.3571 16.0783 55.3571 17.8204C55.3571 19.5624 54.6453 20.7238 53.3153 20.7238ZM53.334 22.8967C56.4248 22.8967 58.4478 20.7051 58.4478 17.8204C58.4478 14.9357 56.4248 12.7441 53.334 12.7441C50.262 12.7441 48.2016 14.9357 48.2016 17.8204C48.2016 20.7051 50.262 22.8967 53.334 22.8967Z" fill="#030712"/>
<path d="M63.7983 25.9125C65.222 25.9125 66.477 25.594 67.3199 24.8448C68.0879 24.1517 68.5937 23.1027 68.5937 21.6604V13.0063H65.6715V14.0366H65.6341C65.0721 13.2311 64.2105 12.7253 62.9367 12.7253C60.5578 12.7253 58.9094 14.7109 58.9094 17.5207C58.9094 20.4615 60.9137 22.0725 63.0678 22.0725C64.2292 22.0725 64.9597 21.6042 65.5217 20.9673H65.5966V21.9226C65.5966 23.084 65.0534 23.7583 63.7609 23.7583C62.7494 23.7583 62.2436 23.3275 62.075 22.8217H59.1154C59.4151 24.826 61.1572 25.9125 63.7983 25.9125ZM63.7796 19.8059C62.637 19.8059 61.8877 18.8693 61.8877 17.427C61.8877 15.9659 62.637 15.0293 63.7796 15.0293C65.0534 15.0293 65.7277 16.1158 65.7277 17.4083C65.7277 18.757 65.1096 19.8059 63.7796 19.8059Z" fill="#030712"/>
<path d="M74.6013 20.7238C73.2713 20.7238 72.5782 19.5624 72.5782 17.8204C72.5782 16.0783 73.2713 14.8982 74.6013 14.8982C75.9312 14.8982 76.643 16.0783 76.643 17.8204C76.643 19.5624 75.9312 20.7238 74.6013 20.7238ZM74.62 22.8967C77.7107 22.8967 79.7333 20.7051 79.7333 17.8204C79.7333 14.9357 77.7107 12.7441 74.62 12.7441C71.548 12.7441 69.4875 14.9357 69.4875 17.8204C69.4875 20.7051 71.548 22.8967 74.62 22.8967Z" fill="#030712"/>
<path d="M80.6266 22.597H83.6798V13.0064H80.6266V22.597ZM80.6266 11.6764H83.6798V9.20386H80.6266V11.6764Z" fill="#030712"/>
<path d="M85.0031 25.7626H88.0564V21.6042H88.0939C88.6933 22.4096 89.5737 22.8967 90.8099 22.8967C93.32 22.8967 94.9871 20.9111 94.9871 17.8016C94.9871 14.917 93.4324 12.7253 90.8849 12.7253C89.5737 12.7253 88.6371 13.306 87.9815 14.1677H87.9253V13.0063H85.0031V25.7626ZM90.0232 20.5365C88.712 20.5365 87.9627 19.4688 87.9627 17.914C87.9627 16.3593 88.6371 15.1792 89.967 15.1792C91.2782 15.1792 91.8964 16.2656 91.8964 17.914C91.8964 19.5437 91.1846 20.5365 90.0232 20.5365Z" fill="#030712"/>
<path d="M99.958 22.8967C102.468 22.8967 104.322 21.8102 104.322 19.7123C104.322 17.2584 102.337 16.8276 100.651 16.5466C99.4335 16.3218 98.347 16.2282 98.347 15.5538C98.347 14.9544 98.9277 14.6734 99.677 14.6734C100.52 14.6734 101.101 14.9357 101.213 15.7973H104.023C103.873 13.9054 102.412 12.7253 99.6957 12.7253C97.4292 12.7253 95.556 13.7743 95.556 15.7973C95.556 18.0451 97.3355 18.4947 99.0026 18.7757C100.276 19.0005 101.438 19.0941 101.438 19.9558C101.438 20.5739 100.857 20.9111 99.9392 20.9111C98.9277 20.9111 98.2908 20.4428 98.1784 19.4875H95.2938C95.3874 21.6042 97.1482 22.8967 99.958 22.8967Z" fill="#030712"/>
<path d="M108.47 22.8778C109.8 22.8778 110.643 22.3533 111.336 21.4167H111.392V22.5968H114.314V13.0062H111.261V18.3635C111.261 19.5061 110.624 20.2928 109.575 20.2928C108.601 20.2928 108.133 19.7122 108.133 18.6632V13.0062H105.098V19.3001C105.098 21.4355 106.26 22.8778 108.47 22.8778Z" fill="#030712"/>
<path d="M115.644 22.597H118.697V17.221C118.697 16.0783 119.259 15.2729 120.214 15.2729C121.132 15.2729 121.563 15.8723 121.563 16.9025V22.597H124.616V17.221C124.616 16.0783 125.159 15.2729 126.134 15.2729C127.051 15.2729 127.482 15.8723 127.482 16.9025V22.597H130.535V16.3593C130.535 14.2051 129.449 12.7253 127.276 12.7253C126.04 12.7253 125.01 13.2498 124.26 14.4112H124.223C123.736 13.381 122.781 12.7253 121.526 12.7253C120.139 12.7253 119.221 13.381 118.622 14.3737H118.566V13.0063H115.644V22.597Z" fill="#030712"/>
<path d="M18.9015 4.96239L16.5417 4.33008L14.5531 11.7518L12.7577 5.05142L10.3979 5.68373L12.3377 12.923L7.50611 8.09146L5.7786 9.81897L11.0782 15.1186L4.47838 13.3502L3.84607 15.71L11.0572 17.6422C10.9747 17.2861 10.931 16.9151 10.931 16.5338C10.931 13.8353 13.1186 11.6477 15.8171 11.6477C18.5157 11.6477 20.7033 13.8353 20.7033 16.5338C20.7033 16.9126 20.6601 17.2814 20.5786 17.6354L27.1322 19.3914L27.7645 17.0316L20.5247 15.0917L27.1249 13.3231L26.4926 10.9633L19.2531 12.9031L24.0846 8.07162L22.3571 6.34411L17.131 11.5702L18.9015 4.96239Z" fill="#FB923C"/>
<path d="M20.5711 17.6631C20.3688 18.5184 19.9416 19.2868 19.3556 19.9025L24.1033 24.6503L25.8309 22.9228L20.5711 17.6631Z" fill="#FB923C"/>
<path d="M19.3083 19.9519C18.7152 20.5577 17.9656 21.0098 17.125 21.2428L18.8526 27.6904L21.2124 27.058L19.3083 19.9519Z" fill="#FB923C"/>
<path d="M17.0365 21.2665C16.6465 21.3668 16.2377 21.4201 15.8164 21.4201C15.3651 21.4201 14.9281 21.3589 14.5132 21.2443L12.784 27.6978L15.1438 28.3301L17.0365 21.2665Z" fill="#FB923C"/>
<path d="M14.4298 21.2204C13.602 20.9759 12.8658 20.518 12.2847 19.9104L7.52525 24.6699L9.25276 26.3974L14.4298 21.2204Z" fill="#FB923C"/>
<path d="M12.2451 19.8685C11.6741 19.2571 11.2581 18.4989 11.0601 17.6567L4.48509 19.4185L5.1174 21.7783L12.2451 19.8685Z" fill="#FB923C"/>
</svg>
