<svg width="150" height="32" viewBox="0 0 150 32" fill="none" xmlns="http://www.w3.org/2000/svg">
<path d="M22.7409 14.5341C22.3998 14.8773 22.1386 15.2914 21.9759 15.747C21.8132 16.2027 21.753 16.6886 21.7995 17.1702L21.7833 17.154C21.8312 17.721 21.7547 18.2914 21.5593 18.8257C21.3639 19.36 21.0543 19.8452 20.6521 20.2475C20.2498 20.6497 19.7646 20.9594 19.2302 21.1547C18.696 21.3501 18.1254 21.4266 17.5586 21.3787L17.5748 21.3949C16.8967 21.3318 16.2157 21.4793 15.6245 21.8175C15.0333 22.1556 14.5608 22.6678 14.2715 23.2843C13.9821 23.9009 13.8899 24.5915 14.0074 25.2624C14.125 25.9332 14.4466 26.5514 14.9284 27.0327C15.4102 27.5141 16.0287 27.8351 16.6995 27.952C17.3705 28.069 18.0611 27.9761 18.6773 27.6862C19.2936 27.3963 19.8053 26.9234 20.1429 26.3319C20.4805 25.7404 20.6275 25.0593 20.5638 24.3812L20.5809 24.3974C20.533 23.8306 20.6094 23.26 20.8048 22.7257C21.0002 22.1914 21.3099 21.7062 21.7121 21.3039C22.1144 20.9017 22.5996 20.592 23.1339 20.3967C23.6682 20.2013 24.2386 20.1248 24.8056 20.1727L24.7885 20.1565C25.3423 20.2063 25.8999 20.1155 26.4094 19.8924C26.9188 19.6694 27.3638 19.3214 27.7029 18.8806C28.042 18.4399 28.2645 17.9206 28.3495 17.371C28.4345 16.8214 28.3795 16.2592 28.1894 15.7365C27.9993 15.2139 27.6803 14.7477 27.2621 14.3811C26.8438 14.0145 26.3398 13.7594 25.7968 13.6395C25.2537 13.5197 24.6891 13.5387 24.1554 13.6951C23.6217 13.8515 23.1361 14.14 22.7436 14.5341H22.7409Z" fill="#EF4444"/>
<path d="M16.1016 19.2729L16.0845 19.2567C16.5663 19.3052 17.0528 19.2461 17.509 19.0835C17.9652 18.921 18.3795 18.6592 18.7221 18.3169C19.0645 17.9746 19.3268 17.5604 19.4896 17.1044C19.6525 16.6483 19.712 16.1619 19.6639 15.68L19.681 15.6962C19.6331 15.1293 19.7096 14.5589 19.9049 14.0245C20.1003 13.4903 20.41 13.0051 20.8122 12.6028C21.2145 12.2005 21.6997 11.8908 22.2339 11.6955C22.7683 11.5001 23.3387 11.4237 23.9056 11.4715L23.8885 11.4553C24.5667 11.519 25.2479 11.3719 25.8394 11.0342C26.431 10.6965 26.9039 10.1845 27.1937 9.56807C27.4835 8.95168 27.5761 8.26089 27.4589 7.58991C27.3417 6.91894 27.0204 6.30046 26.5387 5.81883C26.0571 5.3372 25.4386 5.01586 24.7677 4.89866C24.0967 4.78145 23.406 4.87407 22.7895 5.16389C22.1731 5.45371 21.6612 5.92662 21.3234 6.51813C20.9856 7.10962 20.8386 7.79091 20.9023 8.46905L20.8861 8.45195C20.934 9.01887 20.8577 9.58942 20.6624 10.1238C20.4671 10.6581 20.1574 11.1434 19.7552 11.5458C19.3529 11.948 18.8676 12.2577 18.3333 12.453C17.7988 12.6483 17.2283 12.7246 16.6614 12.6766L16.6776 12.6937C16.1958 12.6452 15.7092 12.7044 15.253 12.8669C14.7969 13.0294 14.3825 13.2913 14.04 13.6335C13.6974 13.9758 13.4353 14.39 13.2724 14.8461C13.1095 15.3021 13.0501 15.7886 13.0982 16.2704L13.082 16.2542C13.1297 16.8211 13.0531 17.3915 12.8577 17.9257C12.6622 18.4599 12.3526 18.9451 11.9504 19.3473C11.5482 19.7495 11.063 20.0591 10.5288 20.2546C9.99458 20.45 9.42416 20.5266 8.85732 20.4789L8.87352 20.4951C8.19537 20.4314 7.51408 20.5785 6.92258 20.9162C6.33109 21.254 5.85817 21.7659 5.56835 22.3824C5.27853 22.9988 5.1859 23.6896 5.30311 24.3605C5.42032 25.0315 5.74166 25.65 6.22329 26.1316C6.70493 26.6133 7.3234 26.9346 7.99438 27.0518C8.66535 27.1689 9.35614 27.0763 9.97254 26.7865C10.5889 26.4967 11.1009 26.0238 11.4387 25.4324C11.7764 24.8408 11.9235 24.1595 11.8598 23.4814L11.8769 23.4976C11.829 22.9307 11.9055 22.3602 12.1009 21.8259C12.2962 21.2916 12.6059 20.8064 13.0081 20.4041C13.4104 20.0019 13.8956 19.6922 14.4299 19.4969C14.9642 19.3015 15.5347 19.225 16.1016 19.2729Z" fill="#EF4444"/>
<path d="M10.0688 17.4664C10.4099 17.1233 10.6711 16.7091 10.8337 16.2534C10.9963 15.7978 11.0562 15.3117 11.0093 14.8302L11.0264 14.8464C10.9785 14.2794 11.055 13.7087 11.2505 13.1743C11.446 12.6399 11.7558 12.1546 12.1583 11.7523C12.5608 11.35 13.0462 11.0404 13.5807 10.8451C14.1152 10.6498 14.6859 10.5736 15.2529 10.6217L15.2358 10.6055C15.9137 10.6691 16.5948 10.5219 17.186 10.1842C17.7772 9.84647 18.2498 9.3346 18.5395 8.71841C18.8292 8.1022 18.9217 7.41166 18.8045 6.74094C18.6873 6.07021 18.366 5.45197 17.8846 4.97052C17.4032 4.48906 16.7849 4.16782 16.1142 4.05062C15.4435 3.93341 14.7529 4.02595 14.1367 4.3156C13.5205 4.60524 13.0086 5.07791 12.671 5.66913C12.3332 6.26035 12.186 6.94136 12.2496 7.61927L12.2334 7.60307C12.2812 8.16995 12.2047 8.74045 12.0093 9.27473C11.814 9.80902 11.5044 10.2942 11.1021 10.6965C10.6998 11.0988 10.2146 11.4084 9.68032 11.6038C9.14603 11.7991 8.57555 11.8756 8.00867 11.8278L8.02487 11.844C7.47097 11.7943 6.91349 11.8853 6.4041 12.1084C5.8947 12.3315 5.44987 12.6796 5.11082 13.1205C4.77177 13.5612 4.54949 14.0805 4.46454 14.6301C4.37961 15.1797 4.43477 15.7419 4.62492 16.2644C4.81507 16.7871 5.13406 17.2532 5.55233 17.6197C5.97059 17.9862 6.4746 18.2412 7.01766 18.3611C7.5607 18.4809 8.12522 18.4617 8.65891 18.3054C9.19258 18.149 9.67814 17.8604 10.0706 17.4664H10.0688Z" fill="#EF4444"/>
<path d="M41.9375 7.09839H45.1055V22.5149H41.9375V7.09839Z" fill="#E5E7EB"/>
<path d="M46.9003 17.2364C46.8959 16.1285 47.2204 15.0442 47.8327 14.1209C48.4449 13.1976 49.3175 12.4767 50.3398 12.0497C51.3621 11.6226 52.488 11.5086 53.5752 11.722C54.6623 11.9355 55.6617 12.4667 56.4466 13.2485C57.2316 14.0303 57.7669 15.0275 57.9847 16.1138C58.2025 17.2001 58.0929 18.3266 57.67 19.3506C57.2471 20.3745 56.5297 21.25 55.6089 21.8659C54.6879 22.4819 53.605 22.8108 52.4971 22.8108C51.7617 22.8192 51.032 22.6809 50.3506 22.4039C49.6693 22.127 49.0499 21.7171 48.5289 21.1982C48.0077 20.6791 47.5953 20.0614 47.3158 19.3812C47.0361 18.701 46.8949 17.9718 46.9003 17.2364ZM54.9259 17.2364C54.9127 16.7588 54.759 16.2958 54.4841 15.9051C54.2091 15.5145 53.8251 15.2134 53.3801 15.0399C52.935 14.8662 52.4487 14.8276 51.9818 14.929C51.5149 15.0303 51.0882 15.2669 50.7551 15.6094C50.4221 15.9518 50.1973 16.3849 50.109 16.8544C50.0207 17.3238 50.0727 17.809 50.2586 18.2491C50.4445 18.6892 50.756 19.0646 51.1541 19.3286C51.5522 19.5926 52.0194 19.7334 52.4971 19.7334C52.8242 19.7422 53.1497 19.683 53.4529 19.5597C53.7561 19.4364 54.0304 19.2516 54.2586 19.0171C54.4868 18.7824 54.6639 18.503 54.7787 18.1966C54.8936 17.8901 54.9437 17.5632 54.9259 17.2364Z" fill="#E5E7EB"/>
<path d="M70.7194 11.9562V21.9829C70.7194 25.5306 67.9525 27.0303 65.144 27.0303C64.1552 27.1044 63.165 26.9046 62.2821 26.453C61.3993 26.0014 60.6579 25.3154 60.1392 24.4703L62.8421 22.9077C63.0601 23.3482 63.4075 23.7116 63.8377 23.9494C64.268 24.187 64.7606 24.2877 65.2496 24.2378C65.5621 24.2811 65.8804 24.2536 66.1809 24.1573C66.4812 24.0609 66.7562 23.8983 66.9854 23.6814C67.2145 23.4645 67.3919 23.1989 67.5045 22.904C67.617 22.6093 67.6618 22.293 67.6357 21.9786V21.0133C67.2647 21.4671 66.7926 21.8278 66.257 22.0662C65.7215 22.3046 65.1376 22.4141 64.552 22.3861C63.1587 22.3421 61.8372 21.7578 60.8672 20.7566C59.8971 19.7556 59.3547 18.4162 59.3547 17.0223C59.3547 15.6284 59.8971 14.2891 60.8672 13.288C61.8372 12.2869 63.1587 11.7025 64.552 11.6586C65.1376 11.6305 65.7215 11.7401 66.257 11.9785C66.7926 12.2169 67.2647 12.5775 67.6357 13.0314V11.9541L70.7194 11.9562ZM67.6368 17.0239C67.6581 16.5134 67.526 16.0081 67.2578 15.5733C66.9895 15.1383 66.5972 14.7936 66.1314 14.5836C65.6656 14.3735 65.1476 14.3077 64.644 14.3945C64.1404 14.4813 63.6744 14.7168 63.3058 15.0709C62.9372 15.4248 62.6831 15.8809 62.5759 16.3805C62.4688 16.8801 62.5136 17.4005 62.7047 17.8744C62.8958 18.3483 63.2243 18.7543 63.648 19.0399C64.0716 19.3256 64.5712 19.4779 65.0821 19.4773C65.415 19.5005 65.749 19.4538 66.0627 19.3401C66.3764 19.2264 66.6628 19.0481 66.9034 18.8171C67.1441 18.586 67.3337 18.307 67.46 17.9981C67.5863 17.6893 67.6466 17.3575 67.6368 17.0239Z" fill="#E5E7EB"/>
<path d="M72.5138 17.2364C72.5094 16.1285 72.8338 15.0442 73.4462 14.1209C74.0585 13.1976 74.931 12.4767 75.9533 12.0497C76.9756 11.6226 78.1016 11.5086 79.1887 11.722C80.2758 11.9355 81.2752 12.4667 82.0602 13.2485C82.8451 14.0303 83.3804 15.0275 83.5982 16.1138C83.816 17.2001 83.7065 18.3266 83.2835 19.3506C82.8606 20.3745 82.1433 21.25 81.2224 21.8659C80.3014 22.4819 79.2186 22.8108 78.1106 22.8108C77.3753 22.8192 76.6454 22.6809 75.9642 22.4039C75.2828 22.127 74.6635 21.7171 74.1424 21.1982C73.6212 20.6791 73.2089 20.0614 72.9293 19.3812C72.6496 18.701 72.5084 17.9718 72.5138 17.2364ZM80.5394 17.2364C80.5262 16.7588 80.3725 16.2958 80.0976 15.9051C79.8226 15.5145 79.4386 15.2134 78.9936 15.0399C78.5485 14.8662 78.0621 14.8276 77.5953 14.929C77.1284 15.0303 76.7018 15.2669 76.3686 15.6094C76.0356 15.9518 75.8108 16.3849 75.7225 16.8544C75.6341 17.3238 75.6862 17.809 75.8721 18.2491C76.058 18.6892 76.3695 19.0646 76.7676 19.3286C77.1658 19.5926 77.6329 19.7334 78.1106 19.7334C78.4378 19.7422 78.7632 19.683 79.0664 19.5597C79.3696 19.4364 79.644 19.2516 79.8721 19.0171C80.1003 18.7824 80.2774 18.503 80.3922 18.1966C80.5071 17.8901 80.5572 17.5632 80.5394 17.2364Z" fill="#E5E7EB"/>
<path d="M85.1843 9.12663C85.1843 8.75069 85.2958 8.38319 85.5046 8.07061C85.7135 7.75802 86.0105 7.51439 86.3578 7.37053C86.7051 7.22665 87.0873 7.18901 87.456 7.26235C87.8246 7.3357 88.1634 7.51673 88.4292 7.78257C88.695 8.04839 88.8761 8.38708 88.9494 8.75581C89.0227 9.12452 88.9851 9.50671 88.8413 9.85403C88.6974 10.2014 88.4538 10.4982 88.1411 10.7071C87.8286 10.916 87.4611 11.0274 87.0851 11.0274C86.5826 11.0224 86.102 10.8206 85.7466 10.4652C85.3913 10.1098 85.1893 9.6292 85.1843 9.12663ZM85.5043 11.9565H88.6734V22.5165H85.5001L85.5043 11.9565Z" fill="#E5E7EB"/>
<path d="M102.353 17.2364C102.39 17.9343 102.288 18.6325 102.054 19.291C101.82 19.9494 101.458 20.5551 100.989 21.0732C100.52 21.5912 99.9526 22.0114 99.3206 22.3097C98.6885 22.6078 98.0038 22.7781 97.3057 22.8108C96.7186 22.8428 96.1318 22.7438 95.5877 22.521C95.0436 22.298 94.556 21.9569 94.1601 21.5222V26.7393H90.9921V11.9564H94.1601V12.9484C94.5561 12.514 95.0439 12.1731 95.5879 11.9505C96.132 11.7278 96.7187 11.6289 97.3057 11.6609C98.0039 11.6934 98.6888 11.8637 99.321 12.1619C99.9532 12.4602 100.52 12.8804 100.989 13.3986C101.458 13.9168 101.82 14.5227 102.054 15.1813C102.288 15.8399 102.39 16.5384 102.353 17.2364ZM99.1851 17.2364C99.1728 16.7422 99.0149 16.2626 98.7313 15.8576C98.4476 15.4527 98.0509 15.1404 97.5908 14.9599C97.1305 14.7793 96.6273 14.7385 96.144 14.8426C95.6607 14.9466 95.2188 15.1908 94.8737 15.5448C94.5285 15.8988 94.2954 16.3466 94.2036 16.8324C94.1117 17.3182 94.1652 17.8202 94.3573 18.2757C94.5493 18.7313 94.8715 19.12 95.2835 19.3934C95.6954 19.6667 96.1787 19.8125 96.6731 19.8124C97.0125 19.8275 97.3513 19.7707 97.6673 19.6457C97.9831 19.5208 98.2691 19.3304 98.5062 19.0872C98.7434 18.8438 98.9265 18.5533 99.0435 18.2344C99.1605 17.9154 99.2088 17.5753 99.1851 17.2364Z" fill="#E5E7EB"/>
<path d="M112.129 19.3474C112.129 21.7762 110.018 22.8109 107.737 22.8109C106.815 22.8943 105.89 22.6995 105.081 22.2514C104.271 21.8034 103.615 21.1229 103.196 20.2978L105.941 18.7351C106.052 19.1165 106.29 19.4483 106.616 19.675C106.942 19.9017 107.337 20.0098 107.733 19.981C108.492 19.981 108.873 19.7485 108.873 19.3271C108.873 18.1645 103.677 18.7778 103.677 15.1245C103.677 12.8215 105.621 11.661 107.817 11.661C108.643 11.6349 109.46 11.8307 110.184 12.228C110.908 12.6255 111.513 13.2098 111.934 13.9202L109.231 15.3773C109.113 15.1007 108.916 14.8651 108.664 14.6998C108.412 14.5346 108.118 14.4471 107.817 14.4482C107.268 14.4482 106.93 14.6615 106.93 15.0391C106.934 16.2434 112.129 15.4402 112.129 19.3474Z" fill="#E5E7EB"/>
<path d="M123.702 11.9563V22.5163H120.534V21.5232C120.168 21.9614 119.704 22.3067 119.179 22.5307C118.654 22.7547 118.085 22.851 117.515 22.8118C115.382 22.8118 113.568 21.2918 113.568 18.4384V11.9563H116.736V17.9744C116.71 18.226 116.738 18.4802 116.821 18.7195C116.902 18.9589 117.035 19.1775 117.21 19.3602C117.385 19.543 117.597 19.6854 117.833 19.7776C118.068 19.8699 118.32 19.9098 118.573 19.8944C119.735 19.8944 120.537 19.2192 120.537 17.7195V11.9595L123.702 11.9563Z" fill="#E5E7EB"/>
<path d="M141.867 16.0319V22.5151H138.699V16.3061C138.699 15.2501 138.192 14.5749 137.179 14.5749C136.123 14.5749 135.531 15.3141 135.531 16.5599V22.5151H132.364V16.3061C132.364 15.2501 131.857 14.5749 130.843 14.5749C129.787 14.5749 129.196 15.3141 129.196 16.5599V22.5151H126.028V11.9551H129.196V12.9258C129.525 12.4952 129.956 12.1536 130.449 11.9325C130.944 11.7113 131.486 11.6175 132.026 11.6597C132.568 11.6331 133.108 11.7476 133.593 11.9917C134.077 12.2358 134.49 12.6014 134.792 13.0527C135.143 12.5805 135.608 12.2051 136.143 11.9614C136.679 11.7178 137.268 11.614 137.854 11.6597C140.279 11.6607 141.867 13.3919 141.867 16.0319Z" fill="#E5E7EB"/>
<path d="M144.546 11.8913C145.844 11.8913 146.897 10.8387 146.897 9.54039C146.897 8.242 145.844 7.18945 144.546 7.18945C143.248 7.18945 142.195 8.242 142.195 9.54039C142.195 10.8387 143.248 11.8913 144.546 11.8913Z" fill="#E5E7EB"/>
</svg>
