<svg width="154" height="32" viewBox="0 0 154 32" fill="none" xmlns="http://www.w3.org/2000/svg">
<g clip-path="url(#clip0_2262_9205)">
<path d="M20.0113 6.44034C20.5083 5.93986 21.1832 5.65869 21.886 5.65869C25.0479 5.65869 28.0277 5.65869 30.9622 5.65869C36.8642 5.65871 39.8197 12.8452 35.6463 17.0482L26.5557 26.2033C26.1384 26.6237 25.4248 26.326 25.4248 25.7315V17.668L26.4754 16.61C27.31 15.7694 26.7189 14.3321 25.5385 14.3321H12.1753L20.0113 6.44034Z" fill="#3B82F6"/>
<path d="M17.5887 25.5598C17.0918 26.0603 16.4168 26.3415 15.714 26.3415C12.5521 26.3415 9.5723 26.3415 6.63784 26.3415C0.735792 26.3415 -2.21967 19.155 1.9537 14.952L11.0443 5.79685C11.4616 5.37655 12.1752 5.67422 12.1752 6.26862L12.1753 14.3321L11.1246 15.3902C10.29 16.2308 10.8811 17.6681 12.0615 17.6681L25.4248 17.668L17.5887 25.5598Z" fill="#3B82F6"/>
<path d="M97.7463 10.831V21.9106H101.069V10.831H97.7463Z" fill="#E5E7EB"/>
<path d="M97.9778 8.98784C98.3705 9.37223 98.8504 9.56446 99.4186 9.56446C99.9862 9.56446 100.463 9.37223 100.849 8.98784C101.241 8.6034 101.438 8.1366 101.438 7.58743C101.438 7.02452 101.241 6.55429 100.849 6.17673C100.463 5.79231 99.9862 5.6001 99.4186 5.6001C98.8504 5.6001 98.3705 5.79231 97.9778 6.17673C97.585 6.55429 97.3886 7.02452 97.3886 7.58743C97.3886 8.1366 97.585 8.6034 97.9778 8.98784Z" fill="#E5E7EB"/>
<path fill-rule="evenodd" clip-rule="evenodd" d="M102.944 26.2354V10.831H106.099V11.9328H106.141C106.339 11.7411 106.553 11.566 106.783 11.4077C107.526 10.8996 108.381 10.6457 109.349 10.6457C110.197 10.6457 111.007 10.8619 111.778 11.2944C112.557 11.7268 113.188 12.3687 113.671 13.2199C114.155 14.0712 114.39 15.1318 114.376 16.4017C114.383 17.3628 114.246 18.2003 113.966 18.9142C113.685 19.6213 113.306 20.2082 112.83 20.675C112.353 21.1418 111.82 21.4919 111.231 21.7253C110.643 21.9587 110.047 22.0754 109.443 22.0754C108.49 22.0754 107.635 21.8145 106.878 21.2928C106.687 21.1597 106.506 21.0156 106.336 20.8603H106.267V26.2354H102.944ZM108.665 19.3569C109.156 19.3501 109.587 19.2231 109.959 18.976C110.33 18.7288 110.622 18.3787 110.832 17.9257C111.042 17.4726 111.144 16.944 111.137 16.3399C111.144 15.7221 111.039 15.1935 110.821 14.7542C110.611 14.308 110.313 13.9681 109.927 13.7348C109.542 13.4945 109.1 13.3778 108.602 13.3847C108.133 13.3778 107.712 13.4911 107.34 13.7245C106.969 13.9579 106.674 14.2977 106.457 14.7439C106.24 15.1832 106.131 15.7152 106.131 16.3399C106.131 16.944 106.24 17.4726 106.457 17.9257C106.681 18.3787 106.983 18.7288 107.361 18.976C107.74 19.2231 108.175 19.3501 108.665 19.3569Z" fill="#E5E7EB"/>
<path d="M117.576 21.7355C118.193 21.9621 118.838 22.0753 119.511 22.0753C120.282 22.0753 120.987 21.9278 121.624 21.6326C122.27 21.3374 122.785 20.9255 123.171 20.3969C123.563 19.8615 123.759 19.2471 123.759 18.5538C123.759 18.0046 123.64 17.5412 123.402 17.1637C123.171 16.7861 122.876 16.4772 122.519 16.2369C122.168 15.9967 121.807 15.8079 121.435 15.6706C121.064 15.5264 120.738 15.4166 120.457 15.3411C120.092 15.2381 119.742 15.1317 119.405 15.0219C119.069 14.9121 118.792 14.7816 118.575 14.6306C118.357 14.4796 118.249 14.2805 118.249 14.0333C118.249 13.7863 118.357 13.5803 118.575 13.4155C118.792 13.2508 119.065 13.1684 119.395 13.1684C119.787 13.1684 120.11 13.2714 120.362 13.4773C120.622 13.6832 120.818 13.8961 120.952 14.1157L123.507 13.0345C123.185 12.3206 122.637 11.7474 121.867 11.3149C121.102 10.8825 120.24 10.6662 119.279 10.6662C118.508 10.6662 117.821 10.807 117.218 11.0884C116.622 11.3698 116.149 11.7612 115.798 12.2623C115.455 12.7565 115.283 13.3297 115.283 13.9819C115.283 14.5997 115.43 15.1249 115.725 15.5573C116.02 15.9898 116.402 16.3467 116.871 16.6282C117.348 16.9028 117.853 17.119 118.386 17.277C118.617 17.3387 118.87 17.4073 119.143 17.4829C119.423 17.5584 119.69 17.6476 119.942 17.7506C120.194 17.8536 120.401 17.9771 120.562 18.1213C120.723 18.2655 120.804 18.4371 120.804 18.6362C120.804 18.794 120.748 18.9416 120.636 19.0789C120.531 19.2162 120.383 19.3295 120.194 19.4187C120.005 19.5011 119.784 19.5423 119.532 19.5423C119.055 19.5423 118.641 19.3981 118.291 19.1098C117.94 18.8215 117.678 18.516 117.502 18.1934L114.894 19.3157C115.132 19.8718 115.486 20.3592 115.956 20.7779C116.426 21.1898 116.966 21.509 117.576 21.7355Z" fill="#E5E7EB"/>
<path d="M137.268 21.9106V10.831H140.434V12.2417H140.491C140.739 11.9046 141.018 11.6197 141.328 11.387C141.959 10.9065 142.705 10.6662 143.568 10.6662C144.282 10.6662 144.889 10.8378 145.387 11.1811C145.771 11.4369 146.084 11.7802 146.326 12.2108H146.385C146.744 11.7636 147.179 11.4134 147.69 11.1605C148.356 10.831 149.081 10.6662 149.867 10.6662C150.617 10.6662 151.234 10.7967 151.718 11.0575C152.201 11.3115 152.58 11.6479 152.853 12.0666C153.127 12.4785 153.32 12.9316 153.432 13.4259C153.544 13.9132 153.6 14.3869 153.6 14.8468V21.9106H150.256V15.2484C150.256 14.6443 150.126 14.181 149.867 13.8583C149.615 13.5288 149.243 13.3641 148.752 13.3641C148.43 13.3641 148.142 13.4362 147.89 13.5803C147.645 13.7176 147.448 13.9269 147.301 14.2084C147.161 14.4899 147.091 14.8365 147.091 15.2484V21.9106H143.767V15.2484C143.767 14.6443 143.638 14.181 143.378 13.8583C143.119 13.5288 142.744 13.3641 142.253 13.3641C141.776 13.3641 141.38 13.5254 141.065 13.848C140.749 14.1638 140.591 14.6374 140.591 15.269V21.9106H137.268Z" fill="#E5E7EB"/>
<path d="M129.136 22.0753C128.358 22.0753 127.65 21.914 127.012 21.5914C126.374 21.2619 125.865 20.7814 125.487 20.1498C125.116 19.5114 124.929 18.7254 124.929 17.7918V10.831H128.253V17.3593C128.253 17.9977 128.421 18.4851 128.757 18.8215C129.101 19.151 129.519 19.3158 130.009 19.3158C130.374 19.3158 130.693 19.2368 130.966 19.0789C131.246 18.9211 131.464 18.698 131.618 18.4096C131.779 18.1144 131.86 17.7643 131.86 17.3593V10.831H135.183V18.0286C135.183 18.4268 135.243 18.7151 135.362 18.8936C135.481 19.072 135.723 19.2265 136.087 19.3569L134.91 22.0753C134.075 21.8626 133.465 21.5846 133.08 21.2413C132.886 21.0684 132.739 20.8693 132.638 20.6441H132.554C132.26 20.9331 131.934 21.1906 131.576 21.4164C130.868 21.8557 130.054 22.0753 129.136 22.0753Z" fill="#E5E7EB"/>
<path fill-rule="evenodd" clip-rule="evenodd" d="M90.5505 22.0753C89.4634 22.0753 88.4713 21.8317 87.5743 21.3443C86.6835 20.8569 85.9721 20.1841 85.439 19.326C84.9133 18.4679 84.6507 17.4794 84.6507 16.3605C84.6507 15.2416 84.9133 14.253 85.439 13.3949C85.9721 12.5369 86.6835 11.8675 87.5743 11.387C88.4713 10.9065 89.4634 10.6662 90.5505 10.6662C91.658 10.6662 92.6569 10.9065 93.5476 11.387C94.4378 11.8675 95.1424 12.5369 95.6614 13.3949C96.1871 14.253 96.4497 15.2416 96.4497 16.3605C96.4497 17.4794 96.1871 18.4679 95.6614 19.326C95.1424 20.1841 94.4345 20.8569 93.5369 21.3443C92.6467 21.8317 91.6512 22.0753 90.5505 22.0753ZM90.5505 19.2951C91.0689 19.2951 91.5352 19.1716 91.9489 18.9245C92.3626 18.6773 92.6886 18.3341 92.9268 17.8947C93.1651 17.4554 93.2845 16.944 93.2845 16.3605C93.2845 15.7976 93.169 15.2965 92.9376 14.8571C92.7061 14.4178 92.3869 14.0746 91.9806 13.8274C91.5737 13.5734 91.104 13.4464 90.5714 13.4464C90.0457 13.4464 89.572 13.57 89.1515 13.8171C88.7378 14.0574 88.4119 14.3972 88.1736 14.8365C87.9353 15.2759 87.8159 15.7839 87.8159 16.3605C87.8159 16.944 87.9353 17.4554 88.1736 17.8947C88.4186 18.3341 88.7486 18.6773 89.1623 18.9245C89.576 19.1716 90.0383 19.2951 90.5505 19.2951Z" fill="#E5E7EB"/>
<path fill-rule="evenodd" clip-rule="evenodd" d="M74.8149 26.0603C75.5999 26.2868 76.4623 26.4001 77.4018 26.4001C78.2784 26.4001 79.0809 26.2903 79.8104 26.0706C80.5393 25.8578 81.1703 25.5352 81.7028 25.1027C82.2427 24.6702 82.6598 24.1348 82.9547 23.4963C83.249 22.8579 83.3961 22.1166 83.3961 21.2722V10.8207H80.378V11.9019H80.3152C80.1143 11.7136 79.897 11.542 79.6627 11.387C78.9338 10.8996 78.082 10.656 77.1075 10.656C76.266 10.656 75.4561 10.8653 74.678 11.2841C73.8998 11.6959 73.262 12.3138 72.764 13.1375C72.2734 13.9544 72.0278 14.9807 72.0278 16.2164C72.0278 17.1431 72.1715 17.9497 72.459 18.6362C72.7465 19.3226 73.1285 19.8958 73.6056 20.3558C74.0894 20.8088 74.6254 21.1486 75.2145 21.3751C75.8036 21.5948 76.3956 21.7047 76.9915 21.7047C77.9524 21.7047 78.8076 21.4472 79.558 20.9324C79.7951 20.7673 80.0169 20.5854 80.2224 20.3866H80.2727V21.4575C80.2727 21.9861 80.0979 22.4117 79.747 22.7343C79.3967 23.0639 78.9722 23.3042 78.4748 23.4552C77.9768 23.6062 77.4963 23.6817 77.0339 23.6817C76.494 23.6817 75.9609 23.5959 75.4352 23.4243C74.9162 23.2595 74.4607 23.0604 74.0685 22.8271L72.9745 25.3807C73.4233 25.6141 74.0368 25.8407 74.8149 26.0603ZM79.1477 18.6876C78.7623 18.9348 78.3169 19.0583 77.8121 19.0583C77.3141 19.0583 76.876 18.9348 76.4974 18.6876C76.1188 18.4336 75.8212 18.087 75.6038 17.6476C75.3865 17.2014 75.2773 16.69 75.2773 16.1134C75.2773 15.5367 75.3865 15.0356 75.6038 14.61C75.8279 14.1844 76.1364 13.8583 76.5291 13.6318C76.9219 13.3984 77.3667 13.2817 77.8647 13.2817C78.3622 13.2817 78.8008 13.3949 79.1794 13.6215C79.558 13.848 79.8556 14.1741 80.073 14.5997C80.2903 15.0185 80.3989 15.523 80.3989 16.1134C80.3989 16.6968 80.2869 17.2117 80.0628 17.6579C79.8381 18.0973 79.5331 18.4405 79.1477 18.6876Z" fill="#E5E7EB"/>
<path fill-rule="evenodd" clip-rule="evenodd" d="M65.2841 22.0753C64.1975 22.0753 63.2055 21.8317 62.3079 21.3443C61.4177 20.8569 60.7058 20.1841 60.1732 19.326C59.6475 18.4679 59.3843 17.4794 59.3843 16.3605C59.3843 15.2416 59.6475 14.253 60.1732 13.3949C60.7058 12.5369 61.4177 11.8675 62.3079 11.387C63.2055 10.9065 64.1975 10.6662 65.2841 10.6662C66.3916 10.6662 67.3911 10.9065 68.2813 11.387C69.1715 11.8675 69.8761 12.5369 70.395 13.3949C70.9208 14.253 71.1839 15.2416 71.1839 16.3605C71.1839 17.4794 70.9208 18.4679 70.395 19.326C69.8761 20.1841 69.1681 20.8569 68.2705 21.3443C67.3803 21.8317 66.3849 22.0753 65.2841 22.0753ZM65.2841 19.2951C65.8031 19.2951 66.2688 19.1716 66.6825 18.9245C67.0962 18.6773 67.4222 18.3341 67.661 17.8947C67.8993 17.4554 68.0181 16.944 68.0181 16.3605C68.0181 15.7976 67.9027 15.2965 67.6712 14.8571C67.4397 14.4178 67.1211 14.0746 66.7142 13.8274C66.3079 13.5734 65.8376 13.4464 65.3051 13.4464C64.7793 13.4464 64.3062 13.57 63.8852 13.8171C63.4715 14.0574 63.1455 14.3972 62.9072 14.8365C62.669 15.2759 62.5496 15.7839 62.5496 16.3605C62.5496 16.944 62.669 17.4554 62.9072 17.8947C63.1528 18.3341 63.4822 18.6773 63.8959 18.9245C64.3096 19.1716 64.772 19.2951 65.2841 19.2951Z" fill="#E5E7EB"/>
<path d="M50.4004 6.73276V21.9106H59.4342V18.9039H53.8498V6.73276H50.4004Z" fill="#E5E7EB"/>
</g>
<defs>
<clipPath id="clip0_2262_9205">
<rect width="153.6" height="32" fill="white"/>
</clipPath>
</defs>
</svg>
