<svg width="146" height="32" viewBox="0 0 146 32" fill="none" xmlns="http://www.w3.org/2000/svg">
<path fill-rule="evenodd" clip-rule="evenodd" d="M24.7826 4.5624C25.5569 3.81844 26.7773 3.81506 27.5556 4.5375L27.6293 4.60928L27.881 4.87442C30.4303 7.62934 31.3802 10.8398 31.1365 13.9752C30.8893 17.1549 29.4289 20.1533 27.3914 22.5228C25.3553 24.8907 22.6368 26.7555 19.6983 27.5649C16.7229 28.3843 13.4686 28.1231 10.6437 26.1196C8.2478 24.4202 7.3356 21.6737 7.27364 19.0056C5.92915 18.3431 4.51449 17.5197 3.03018 16.5183L2.63798 16.2507L2.55443 16.1901C1.71174 15.5433 1.51906 14.3462 2.13323 13.4674C2.74758 12.5886 3.94382 12.3502 4.84817 12.9088L4.93517 12.9654L5.29247 13.2096C6.18165 13.8095 7.03009 14.3295 7.83685 14.7785C8.3573 12.9435 9.21967 11.1818 10.3557 9.72952C12.0577 7.55393 14.6096 5.81408 17.7358 6.07367C20.5518 6.30765 22.6324 7.76705 23.7063 9.82669C24.7462 11.8211 24.7616 14.2202 23.8528 16.2834C22.9262 18.3867 21.0452 20.1391 18.3393 20.8611C16.392 21.3807 14.1108 21.345 11.5368 20.6492V20.6502C10.5121 20.3731 9.43831 19.9904 8.31607 19.4934C8.06432 19.382 7.8452 19.5523 8.31607 19.8479C9.64129 20.7929 11.5081 21.585 12.0484 21.8509C12.3037 22.2659 12.6203 22.6062 12.9832 22.8636C14.6532 24.0481 16.6068 24.2651 18.6229 23.7098C20.6761 23.1443 22.7339 21.7808 24.33 19.9246C25.9249 18.0698 26.9531 15.8475 27.1226 13.6671C27.2825 11.6098 26.6915 9.49627 24.9114 7.57566L24.7355 7.39059L24.6652 7.31442C23.9647 6.51767 24.0088 5.3063 24.7826 4.5624ZM17.4006 10.0601C16.109 9.95284 14.7459 10.6359 13.5346 12.1842C12.6122 13.3633 11.9142 14.8954 11.5584 16.4719C14.0932 17.3425 15.9823 17.3484 17.295 16.9983C18.8145 16.5928 19.7257 15.6748 20.1642 14.6793C20.6204 13.6436 20.5737 12.515 20.1313 11.6666C19.723 10.8835 18.901 10.1848 17.4006 10.0601Z" fill="#2DD4BF"/>
<path d="M92.3888 10.0016C91.2561 10.0016 90.5288 9.14711 90.6864 8.0008C90.844 6.85451 91.8064 6 92.9398 6C94.0725 6 94.7998 6.85451 94.6422 8.0008C94.4846 9.14711 93.5222 10.0016 92.3888 10.0016Z" fill="#E5E7EB"/>
<path d="M89.2985 21.2352L90.7149 10.9394H93.8052L92.3888 21.2352H89.2985Z" fill="#E5E7EB"/>
<path fill-rule="evenodd" clip-rule="evenodd" d="M94.7306 16.1916L93.4312 25.6329H96.5215L97.2815 20.1098C97.7943 21.0269 98.7585 21.5063 99.9737 21.5063C102.282 21.5063 105.154 19.7972 105.646 16.2124C106.103 12.8986 104.143 10.6686 100.909 10.6686C97.7979 10.6686 95.2064 12.7319 94.7306 16.1916ZM102.532 16.0874C102.329 17.5672 101.24 18.5884 99.8397 18.5884C98.4385 18.5884 97.6312 17.5672 97.8349 16.0874C98.0385 14.6076 99.127 13.5864 100.528 13.5864C101.929 13.5864 102.736 14.6076 102.532 16.0874Z" fill="#E5E7EB"/>
<path d="M109.762 21.5063C107.146 21.5063 105.651 20.089 105.882 18.109H108.931C108.877 18.6509 109.232 18.9219 110.076 18.9219C111.024 18.9219 111.379 18.5884 111.439 18.1507C111.528 17.5086 110.894 17.4115 110.055 17.2827L110.052 17.2822C109.993 17.2732 109.934 17.264 109.873 17.2546C108.501 17.0461 106.242 16.6918 106.583 14.2116C106.87 12.1275 108.699 10.6686 111.233 10.6686C113.766 10.6686 115.129 12.1484 114.936 14.0032H111.928C111.911 13.5239 111.536 13.253 110.918 13.253C110.156 13.253 109.793 13.6489 109.735 14.0658C109.653 14.6627 110.315 14.7657 111.182 14.9007L111.307 14.9202C112.741 15.1287 114.932 15.5247 114.597 17.9632C114.304 20.089 112.379 21.5063 109.762 21.5063Z" fill="#E5E7EB"/>
<path d="M127.219 15.4413L126.422 21.2353H129.512L130.309 15.4413C130.499 14.0658 131.224 13.5864 132.151 13.5864C133.058 13.5864 133.651 14.0658 133.461 15.4413L132.664 21.2353H135.755L136.551 15.4413C136.741 14.0658 137.466 13.5864 138.373 13.5864C139.3 13.5864 139.893 14.0658 139.704 15.4413L138.907 21.2353H141.997L142.795 15.4413C143.25 12.1275 141.556 10.6686 139.083 10.6686C137.621 10.6686 136.348 11.2313 135.437 12.3151C134.824 11.2313 133.685 10.6686 132.243 10.6686C129.771 10.6686 127.675 12.1275 127.219 15.4413Z" fill="#E5E7EB"/>
<path d="M115.739 16.2748C115.26 19.7554 117.039 21.5061 120.047 21.5061C123.054 21.5061 125.317 19.7346 125.793 16.2748L126.527 10.9394H123.437L122.703 16.2748C122.479 17.9005 121.602 18.5882 120.448 18.5882C119.294 18.5882 118.606 17.9005 118.83 16.2748L119.564 10.9394H116.473L115.739 16.2748Z" fill="#E5E7EB"/>
<path fill-rule="evenodd" clip-rule="evenodd" d="M77.8191 16.0874C77.3894 19.2137 79.3403 21.5063 82.5542 21.5063C85.7682 21.5063 88.3494 19.2137 88.7797 16.0874C89.21 12.9611 87.2591 10.6686 84.0452 10.6686C80.8312 10.6686 78.2494 12.9611 77.8191 16.0874ZM85.6482 16.0874C85.4446 17.5672 84.3561 18.5884 82.9554 18.5884C81.5542 18.5884 80.747 17.5672 80.9506 16.0874C81.1542 14.6076 82.2427 13.5864 83.6433 13.5864C85.0446 13.5864 85.8518 14.6076 85.6482 16.0874Z" fill="#E5E7EB"/>
<path fill-rule="evenodd" clip-rule="evenodd" d="M67.9795 20.5382C66.7311 19.5818 66.112 17.9888 66.3736 16.0874C66.8037 12.9611 69.3853 10.6686 72.599 10.6686C75.813 10.6686 77.7639 12.9611 77.3342 16.0874C76.9185 19.1072 74.4954 21.3491 71.4348 21.4983C72.1554 21.9129 73.2027 22.2481 73.9724 22.4945C74.2293 22.5768 74.4554 22.6492 74.6281 22.7113C75.3269 22.888 75.773 23.5468 75.6651 24.3324C75.5384 25.2534 74.6978 26 73.7869 26H68.8416C67.0207 26 65.75 24.5067 66.0034 22.6646H71.2772C70.0724 22.1932 68.7988 21.2502 67.9795 20.5382ZM71.5099 18.5884C72.9106 18.5884 73.999 17.5672 74.2027 16.0874C74.4063 14.6076 73.599 13.5864 72.1978 13.5864C70.7972 13.5864 69.7087 14.6076 69.5051 16.0874C69.3016 17.5672 70.1087 18.5884 71.5099 18.5884Z" fill="#E5E7EB"/>
<path fill-rule="evenodd" clip-rule="evenodd" d="M54.928 16.0874C54.4979 19.2137 56.4487 21.5063 59.6627 21.5063C62.8767 21.5063 65.4583 19.2137 65.8884 16.0874C66.3185 12.9611 64.3677 10.6686 61.1537 10.6686C57.9398 10.6686 55.358 12.9611 54.928 16.0874ZM62.7569 16.0874C62.5533 17.5672 61.4651 18.5884 60.0641 18.5884C58.6631 18.5884 57.8559 17.5672 58.0595 16.0874C58.2631 14.6076 59.3513 13.5864 60.7523 13.5864C62.1532 13.5864 62.9604 14.6076 62.7569 16.0874Z" fill="#E5E7EB"/>
<path d="M44.0801 21.2353L45.9553 7.60483H49.2928L47.8477 18.1091H54.2139L53.7838 21.2353H44.0801Z" fill="#E5E7EB"/>
</svg>
