<svg width="133" height="32" viewBox="0 0 133 32" fill="none" xmlns="http://www.w3.org/2000/svg">
<path d="M38.461 22.597H47.7894V19.7873H41.7765V9.20386H38.461V22.597Z" fill="#E5E7EB"/>
<path d="M53.3154 20.7238C51.9854 20.7238 51.2923 19.5624 51.2923 17.8204C51.2923 16.0783 51.9854 14.8982 53.3154 14.8982C54.6453 14.8982 55.3571 16.0783 55.3571 17.8204C55.3571 19.5624 54.6453 20.7238 53.3154 20.7238ZM53.3341 22.8967C56.4248 22.8967 58.4479 20.7051 58.4479 17.8204C58.4479 14.9357 56.4248 12.7441 53.3341 12.7441C50.2621 12.7441 48.2016 14.9357 48.2016 17.8204C48.2016 20.7051 50.2621 22.8967 53.3341 22.8967Z" fill="#E5E7EB"/>
<path d="M63.7984 25.9125C65.222 25.9125 66.477 25.594 67.32 24.8448C68.088 24.1517 68.5937 23.1027 68.5937 21.6604V13.0063H65.6716V14.0366H65.6341C65.0722 13.2311 64.2105 12.7253 62.9368 12.7253C60.5578 12.7253 58.9094 14.7109 58.9094 17.5207C58.9094 20.4615 60.9137 22.0725 63.0679 22.0725C64.2292 22.0725 64.9598 21.6042 65.5217 20.9673H65.5967V21.9226C65.5967 23.084 65.0534 23.7583 63.761 23.7583C62.7494 23.7583 62.2437 23.3275 62.0751 22.8217H59.1155C59.4152 24.826 61.1572 25.9125 63.7984 25.9125ZM63.7797 19.8059C62.6371 19.8059 61.8878 18.8693 61.8878 17.427C61.8878 15.9659 62.6371 15.0293 63.7797 15.0293C65.0534 15.0293 65.7278 16.1158 65.7278 17.4083C65.7278 18.757 65.1096 19.8059 63.7797 19.8059Z" fill="#E5E7EB"/>
<path d="M74.6013 20.7238C73.2714 20.7238 72.5783 19.5624 72.5783 17.8204C72.5783 16.0783 73.2714 14.8982 74.6013 14.8982C75.9313 14.8982 76.6431 16.0783 76.6431 17.8204C76.6431 19.5624 75.9313 20.7238 74.6013 20.7238ZM74.62 22.8967C77.7108 22.8967 79.7334 20.7051 79.7334 17.8204C79.7334 14.9357 77.7108 12.7441 74.62 12.7441C71.548 12.7441 69.4876 14.9357 69.4876 17.8204C69.4876 20.7051 71.548 22.8967 74.62 22.8967Z" fill="#E5E7EB"/>
<path d="M80.6266 22.597H83.6799V13.0064H80.6266V22.597ZM80.6266 11.6764H83.6799V9.20386H80.6266V11.6764Z" fill="#E5E7EB"/>
<path d="M85.0032 25.7626H88.0564V21.6042H88.0939C88.6933 22.4096 89.5737 22.8967 90.81 22.8967C93.3201 22.8967 94.9872 20.9111 94.9872 17.8016C94.9872 14.917 93.4324 12.7253 90.8849 12.7253C89.5737 12.7253 88.6371 13.306 87.9815 14.1677H87.9253V13.0063H85.0032V25.7626ZM90.0233 20.5365C88.7121 20.5365 87.9628 19.4688 87.9628 17.914C87.9628 16.3593 88.6371 15.1792 89.9671 15.1792C91.2783 15.1792 91.8964 16.2656 91.8964 17.914C91.8964 19.5437 91.1846 20.5365 90.0233 20.5365Z" fill="#E5E7EB"/>
<path d="M99.958 22.8967C102.468 22.8967 104.322 21.8102 104.322 19.7123C104.322 17.2584 102.337 16.8276 100.651 16.5466C99.4335 16.3218 98.3471 16.2282 98.3471 15.5538C98.3471 14.9544 98.9278 14.6734 99.677 14.6734C100.52 14.6734 101.101 14.9357 101.213 15.7973H104.023C103.873 13.9054 102.412 12.7253 99.6958 12.7253C97.4292 12.7253 95.5561 13.7743 95.5561 15.7973C95.5561 18.0451 97.3356 18.4947 99.0027 18.7757C100.276 19.0005 101.438 19.0941 101.438 19.9558C101.438 20.5739 100.857 20.9111 99.9393 20.9111C98.9278 20.9111 98.2909 20.4428 98.1785 19.4875H95.2938C95.3875 21.6042 97.1483 22.8967 99.958 22.8967Z" fill="#E5E7EB"/>
<path d="M108.47 22.8778C109.8 22.8778 110.643 22.3533 111.336 21.4167H111.392V22.5968H114.314V13.0062H111.261V18.3635C111.261 19.5061 110.624 20.2928 109.575 20.2928C108.601 20.2928 108.133 19.7122 108.133 18.6632V13.0062H105.098V19.3001C105.098 21.4355 106.26 22.8778 108.47 22.8778Z" fill="#E5E7EB"/>
<path d="M115.644 22.597H118.697V17.221C118.697 16.0783 119.259 15.2729 120.214 15.2729C121.132 15.2729 121.563 15.8723 121.563 16.9025V22.597H124.616V17.221C124.616 16.0783 125.16 15.2729 126.134 15.2729C127.051 15.2729 127.482 15.8723 127.482 16.9025V22.597H130.536V16.3593C130.536 14.2051 129.449 12.7253 127.276 12.7253C126.04 12.7253 125.01 13.2498 124.26 14.4112H124.223C123.736 13.381 122.781 12.7253 121.526 12.7253C120.139 12.7253 119.222 13.381 118.622 14.3737H118.566V13.0063H115.644V22.597Z" fill="#E5E7EB"/>
<path d="M18.9012 4.96239L16.5414 4.33008L14.5527 11.7518L12.7574 5.05142L10.3975 5.68373L12.3373 12.923L7.50574 8.09146L5.77823 9.81897L11.0779 15.1186L4.47802 13.3502L3.8457 15.71L11.0569 17.6422C10.9743 17.2861 10.9306 16.9151 10.9306 16.5338C10.9306 13.8353 13.1182 11.6477 15.8168 11.6477C18.5153 11.6477 20.7029 13.8353 20.7029 16.5338C20.7029 16.9126 20.6598 17.2814 20.5782 17.6354L27.1318 19.3914L27.7641 17.0316L20.5243 15.0917L27.1246 13.3231L26.4922 10.9633L19.2527 12.9031L24.0843 8.07162L22.3567 6.34411L17.1306 11.5702L18.9012 4.96239Z" fill="#FB923C"/>
<path d="M20.5707 17.6631C20.3684 18.5184 19.9413 19.2868 19.3552 19.9025L24.103 24.6503L25.8305 22.9228L20.5707 17.6631Z" fill="#FB923C"/>
<path d="M19.308 19.9519C18.7148 20.5577 17.9652 21.0098 17.1246 21.2428L18.8523 27.6904L21.2121 27.058L19.308 19.9519Z" fill="#FB923C"/>
<path d="M17.0361 21.2665C16.6461 21.3668 16.2373 21.4201 15.8161 21.4201C15.3647 21.4201 14.9277 21.3589 14.5128 21.2443L12.7836 27.6978L15.1434 28.3301L17.0361 21.2665Z" fill="#FB923C"/>
<path d="M14.4294 21.2204C13.6017 20.9759 12.8654 20.518 12.2844 19.9104L7.52488 24.6699L9.25239 26.3974L14.4294 21.2204Z" fill="#FB923C"/>
<path d="M12.2448 19.8685C11.6737 19.2571 11.2577 18.4989 11.0597 17.6567L4.48472 19.4185L5.11703 21.7783L12.2448 19.8685Z" fill="#FB923C"/>
</svg>
