<svg width="150" height="32" viewBox="0 0 150 32" fill="none" xmlns="http://www.w3.org/2000/svg">
<path d="M22.7414 14.5341C22.4003 14.8773 22.1391 15.2914 21.9764 15.747C21.8137 16.2027 21.7535 16.6886 21.8 17.1702L21.7838 17.154C21.8317 17.721 21.7552 18.2914 21.5598 18.8257C21.3644 19.36 21.0548 19.8452 20.6526 20.2475C20.2502 20.6497 19.765 20.9594 19.2307 21.1547C18.6965 21.3501 18.1259 21.4266 17.5591 21.3787L17.5753 21.3949C16.8972 21.3318 16.2162 21.4793 15.625 21.8175C15.0338 22.1556 14.5613 22.6678 14.272 23.2843C13.9826 23.9009 13.8903 24.5915 14.0079 25.2624C14.1255 25.9332 14.4471 26.5514 14.9289 27.0327C15.4107 27.5141 16.0292 27.8351 16.7 27.952C17.371 28.069 18.0616 27.9761 18.6778 27.6862C19.2941 27.3963 19.8058 26.9234 20.1434 26.3319C20.481 25.7404 20.628 25.0593 20.5643 24.3812L20.5814 24.3974C20.5335 23.8306 20.6099 23.26 20.8053 22.7257C21.0007 22.1914 21.3104 21.7062 21.7126 21.3039C22.1149 20.9017 22.6001 20.592 23.1344 20.3967C23.6687 20.2013 24.2391 20.1248 24.8061 20.1727L24.789 20.1565C25.3428 20.2063 25.9004 20.1155 26.4099 19.8924C26.9193 19.6694 27.3643 19.3214 27.7034 18.8806C28.0425 18.4399 28.265 17.9206 28.35 17.371C28.435 16.8214 28.3799 16.2592 28.1899 15.7365C27.9998 15.2139 27.6808 14.7477 27.2626 14.3811C26.8443 14.0145 26.3403 13.7594 25.7972 13.6395C25.2542 13.5197 24.6896 13.5387 24.1559 13.6951C23.6222 13.8515 23.1366 14.14 22.7441 14.5341H22.7414Z" fill="#4B5563"/>
<path d="M16.1021 19.2729L16.085 19.2567C16.5667 19.3052 17.0533 19.2461 17.5095 19.0835C17.9656 18.921 18.38 18.6592 18.7226 18.3169C19.065 17.9746 19.3273 17.5604 19.4901 17.1044C19.653 16.6483 19.7125 16.1619 19.6643 15.68L19.6814 15.6962C19.6336 15.1293 19.7101 14.5589 19.9054 14.0245C20.1008 13.4903 20.4105 13.0051 20.8127 12.6028C21.215 12.2005 21.7002 11.8908 22.2344 11.6955C22.7688 11.5001 23.3392 11.4237 23.9061 11.4715L23.889 11.4553C24.5672 11.519 25.2484 11.3719 25.8399 11.0342C26.4315 10.6965 26.9044 10.1845 27.1942 9.56807C27.484 8.95168 27.5766 8.26089 27.4594 7.58991C27.3422 6.91894 27.0209 6.30046 26.5392 5.81883C26.0576 5.3372 25.4391 5.01586 24.7682 4.89866C24.0972 4.78145 23.4064 4.87407 22.79 5.16389C22.1736 5.45371 21.6617 5.92662 21.3239 6.51813C20.9861 7.10962 20.839 7.79091 20.9028 8.46905L20.8866 8.45195C20.9345 9.01887 20.8582 9.58942 20.6629 10.1238C20.4676 10.6581 20.1579 11.1434 19.7557 11.5458C19.3534 11.948 18.8681 12.2577 18.3338 12.453C17.7993 12.6483 17.2288 12.7246 16.6619 12.6766L16.6781 12.6937C16.1963 12.6452 15.7097 12.7044 15.2535 12.8669C14.7974 13.0294 14.383 13.2913 14.0405 13.6335C13.6979 13.9758 13.4358 14.39 13.2729 14.8461C13.11 15.3021 13.0505 15.7886 13.0987 16.2704L13.0825 16.2542C13.1302 16.8211 13.0536 17.3915 12.8582 17.9257C12.6627 18.4599 12.3531 18.9451 11.9509 19.3473C11.5486 19.7495 11.0635 20.0591 10.5293 20.2546C9.99507 20.45 9.42464 20.5266 8.8578 20.4789L8.874 20.4951C8.19586 20.4314 7.51457 20.5785 6.92307 20.9162C6.33157 21.254 5.85866 21.7659 5.56884 22.3824C5.27902 22.9988 5.18639 23.6896 5.3036 24.3605C5.42081 25.0315 5.74215 25.65 6.22378 26.1316C6.70542 26.6133 7.32389 26.9346 7.99486 27.0518C8.66584 27.1689 9.35663 27.0763 9.97303 26.7865C10.5894 26.4967 11.1014 26.0238 11.4392 25.4324C11.7769 24.8408 11.924 24.1595 11.8603 23.4814L11.8774 23.4976C11.8295 22.9307 11.906 22.3602 12.1014 21.8259C12.2967 21.2916 12.6064 20.8064 13.0086 20.4041C13.4109 20.0019 13.8961 19.6922 14.4304 19.4969C14.9647 19.3015 15.5351 19.225 16.1021 19.2729Z" fill="#4B5563"/>
<path d="M10.0693 17.4664C10.4104 17.1233 10.6716 16.7091 10.8342 16.2534C10.9968 15.7978 11.0567 15.3117 11.0098 14.8302L11.0269 14.8464C10.979 14.2794 11.0555 13.7087 11.251 13.1743C11.4465 12.6399 11.7563 12.1546 12.1588 11.7523C12.5613 11.35 13.0467 11.0404 13.5812 10.8451C14.1157 10.6498 14.6864 10.5736 15.2534 10.6217L15.2363 10.6055C15.9142 10.6691 16.5953 10.5219 17.1865 10.1842C17.7777 9.84647 18.2503 9.3346 18.54 8.71841C18.8296 8.1022 18.9222 7.41166 18.805 6.74094C18.6878 6.07021 18.3665 5.45197 17.8851 4.97052C17.4037 4.48906 16.7853 4.16782 16.1146 4.05062C15.444 3.93341 14.7534 4.02595 14.1372 4.3156C13.521 4.60524 13.0091 5.07791 12.6714 5.66913C12.3337 6.26035 12.1865 6.94136 12.2501 7.61927L12.2339 7.60307C12.2817 8.16995 12.2052 8.74045 12.0098 9.27473C11.8144 9.80902 11.5049 10.2942 11.1026 10.6965C10.7003 11.0988 10.2151 11.4084 9.68081 11.6038C9.14652 11.7991 8.57604 11.8756 8.00916 11.8278L8.02536 11.844C7.47146 11.7943 6.91398 11.8853 6.40458 12.1084C5.89519 12.3315 5.45036 12.6796 5.11131 13.1205C4.77226 13.5612 4.54998 14.0805 4.46503 14.6301C4.3801 15.1797 4.43526 15.7419 4.62541 16.2644C4.81555 16.7871 5.13455 17.2532 5.55281 17.6197C5.97108 17.9862 6.47509 18.2412 7.01815 18.3611C7.56119 18.4809 8.12571 18.4617 8.65939 18.3054C9.19307 18.149 9.67863 17.8604 10.0711 17.4664H10.0693Z" fill="#4B5563"/>
<path d="M41.9375 7.09839H45.1055V22.5149H41.9375V7.09839Z" fill="#4B5563"/>
<path d="M46.9005 17.2364C46.8962 16.1285 47.2206 15.0442 47.8329 14.1209C48.4452 13.1976 49.3177 12.4767 50.34 12.0497C51.3623 11.6226 52.4883 11.5086 53.5754 11.722C54.6626 11.9355 55.6619 12.4667 56.4469 13.2485C57.2318 14.0303 57.7671 15.0275 57.9849 16.1138C58.2027 17.2001 58.0932 18.3266 57.6702 19.3506C57.2473 20.3745 56.53 21.25 55.6091 21.8659C54.6882 22.4819 53.6053 22.8108 52.4973 22.8108C51.762 22.8192 51.0323 22.6809 50.3509 22.4039C49.6695 22.127 49.0502 21.7171 48.5291 21.1982C48.008 20.6791 47.5956 20.0614 47.316 19.3812C47.0363 18.701 46.8951 17.9718 46.9005 17.2364ZM54.9261 17.2364C54.9129 16.7588 54.7592 16.2958 54.4843 15.9051C54.2093 15.5145 53.8253 15.2134 53.3803 15.0399C52.9352 14.8662 52.4489 14.8276 51.982 14.929C51.5152 15.0303 51.0885 15.2669 50.7554 15.6094C50.4224 15.9518 50.1975 16.3849 50.1093 16.8544C50.021 17.3238 50.0729 17.809 50.2588 18.2491C50.4448 18.6892 50.7562 19.0646 51.1543 19.3286C51.5525 19.5926 52.0197 19.7334 52.4973 19.7334C52.8245 19.7422 53.1499 19.683 53.4532 19.5597C53.7563 19.4364 54.0307 19.2516 54.2588 19.0171C54.487 18.7824 54.6642 18.503 54.7789 18.1966C54.8938 17.8901 54.944 17.5632 54.9261 17.2364Z" fill="#4B5563"/>
<path d="M70.7192 11.9562V21.9829C70.7192 25.5306 67.9523 27.0303 65.1437 27.0303C64.1549 27.1044 63.1647 26.9046 62.2819 26.453C61.3991 26.0014 60.6576 25.3154 60.1389 24.4703L62.8419 22.9077C63.0599 23.3482 63.4073 23.7116 63.8375 23.9494C64.2678 24.187 64.7604 24.2877 65.2493 24.2378C65.5619 24.2811 65.8801 24.2536 66.1806 24.1573C66.481 24.0609 66.756 23.8983 66.9851 23.6814C67.2142 23.4645 67.3916 23.1989 67.5043 22.904C67.6168 22.6093 67.6616 22.293 67.6355 21.9786V21.0133C67.2645 21.4671 66.7924 21.8278 66.2568 22.0662C65.7212 22.3046 65.1373 22.4141 64.5517 22.3861C63.1584 22.3421 61.8369 21.7578 60.8669 20.7566C59.8969 19.7556 59.3545 18.4162 59.3545 17.0223C59.3545 15.6284 59.8969 14.2891 60.8669 13.288C61.8369 12.2869 63.1584 11.7025 64.5517 11.6586C65.1373 11.6305 65.7212 11.7401 66.2568 11.9785C66.7924 12.2169 67.2645 12.5775 67.6355 13.0314V11.9541L70.7192 11.9562ZM67.6365 17.0239C67.6579 16.5134 67.5258 16.0081 67.2575 15.5733C66.9893 15.1383 66.5969 14.7936 66.1311 14.5836C65.6653 14.3735 65.1473 14.3077 64.6438 14.3945C64.1402 14.4813 63.6742 14.7168 63.3055 15.0709C62.937 15.4248 62.6828 15.8809 62.5756 16.3805C62.4685 16.8801 62.5133 17.4005 62.7045 17.8744C62.8955 18.3483 63.224 18.7543 63.6477 19.0399C64.0714 19.3256 64.5709 19.4779 65.0819 19.4773C65.4148 19.5005 65.7487 19.4538 66.0624 19.3401C66.3761 19.2264 66.6625 19.0481 66.9032 18.8171C67.1438 18.586 67.3335 18.307 67.4598 17.9981C67.5861 17.6893 67.6463 17.3575 67.6365 17.0239Z" fill="#4B5563"/>
<path d="M72.5143 17.2364C72.5099 16.1285 72.8343 15.0442 73.4467 14.1209C74.059 13.1976 74.9315 12.4767 75.9538 12.0497C76.9761 11.6226 78.102 11.5086 79.1892 11.722C80.2763 11.9355 81.2757 12.4667 82.0607 13.2485C82.8456 14.0303 83.3809 15.0275 83.5987 16.1138C83.8165 17.2001 83.7069 18.3266 83.284 19.3506C82.8611 20.3745 82.1438 21.25 81.2229 21.8659C80.3019 22.4819 79.2191 22.8108 78.1111 22.8108C77.3757 22.8192 76.6459 22.6809 75.9647 22.4039C75.2833 22.127 74.664 21.7171 74.1429 21.1982C73.6217 20.6791 73.2093 20.0614 72.9298 19.3812C72.6501 18.701 72.5089 17.9718 72.5143 17.2364ZM80.5399 17.2364C80.5267 16.7588 80.373 16.2958 80.0981 15.9051C79.8231 15.5145 79.4391 15.2134 78.9941 15.0399C78.549 14.8662 78.0626 14.8276 77.5958 14.929C77.1289 15.0303 76.7023 15.2669 76.3691 15.6094C76.0361 15.9518 75.8113 16.3849 75.7229 16.8544C75.6346 17.3238 75.6867 17.809 75.8726 18.2491C76.0585 18.6892 76.37 19.0646 76.7681 19.3286C77.1663 19.5926 77.6333 19.7334 78.1111 19.7334C78.4383 19.7422 78.7637 19.683 79.0668 19.5597C79.3701 19.4364 79.6444 19.2516 79.8726 19.0171C80.1008 18.7824 80.2779 18.503 80.3927 18.1966C80.5076 17.8901 80.5577 17.5632 80.5399 17.2364Z" fill="#4B5563"/>
<path d="M85.1846 9.12663C85.1846 8.75069 85.296 8.38319 85.5049 8.07061C85.7137 7.75802 86.0107 7.51439 86.358 7.37053C86.7053 7.22665 87.0875 7.18901 87.4563 7.26235C87.8249 7.3357 88.1637 7.51673 88.4295 7.78257C88.6953 8.04839 88.8763 8.38708 88.9497 8.75581C89.023 9.12452 88.9853 9.50671 88.8415 9.85403C88.6976 10.2014 88.454 10.4982 88.1414 10.7071C87.8288 10.916 87.4614 11.0274 87.0854 11.0274C86.5829 11.0224 86.1022 10.8206 85.7468 10.4652C85.3915 10.1098 85.1896 9.6292 85.1846 9.12663ZM85.5046 11.9565H88.6736V22.5165H85.5003L85.5046 11.9565Z" fill="#4B5563"/>
<path d="M102.353 17.2364C102.39 17.9343 102.288 18.6325 102.054 19.291C101.82 19.9494 101.458 20.5551 100.989 21.0732C100.52 21.5912 99.9527 22.0114 99.3207 22.3097C98.6886 22.6078 98.0039 22.7781 97.3058 22.8108C96.7187 22.8428 96.1319 22.7438 95.5878 22.521C95.0437 22.298 94.5561 21.9569 94.1602 21.5222V26.7393H90.9922V11.9564H94.1602V12.9484C94.5562 12.514 95.044 12.1731 95.588 11.9505C96.1321 11.7278 96.7188 11.6289 97.3058 11.6609C98.004 11.6934 98.6889 11.8637 99.3211 12.1619C99.9534 12.4602 100.52 12.8804 100.989 13.3986C101.459 13.9168 101.821 14.5227 102.055 15.1813C102.289 15.8399 102.39 16.5384 102.353 17.2364ZM99.1853 17.2364C99.1729 16.7422 99.015 16.2626 98.7314 15.8576C98.4478 15.4527 98.0511 15.1404 97.5909 14.9599C97.1306 14.7793 96.6274 14.7385 96.1441 14.8426C95.6608 14.9466 95.219 15.1908 94.8738 15.5448C94.5286 15.8988 94.2956 16.3466 94.2037 16.8324C94.1119 17.3182 94.1653 17.8202 94.3574 18.2757C94.5494 18.7313 94.8717 19.12 95.2836 19.3934C95.6955 19.6667 96.1789 19.8125 96.6733 19.8124C97.0127 19.8275 97.3514 19.7707 97.6674 19.6457C97.9832 19.5208 98.2692 19.3304 98.5063 19.0872C98.7435 18.8438 98.9266 18.5533 99.0436 18.2344C99.1606 17.9154 99.2089 17.5753 99.1853 17.2364Z" fill="#4B5563"/>
<path d="M112.129 19.3474C112.129 21.7762 110.018 22.8109 107.738 22.8109C106.816 22.8943 105.891 22.6995 105.081 22.2514C104.272 21.8034 103.615 21.1229 103.197 20.2978L105.941 18.7351C106.052 19.1165 106.291 19.4483 106.617 19.675C106.943 19.9017 107.338 20.0098 107.733 19.981C108.493 19.981 108.874 19.7485 108.874 19.3271C108.874 18.1645 103.678 18.7778 103.678 15.1245C103.678 12.8215 105.621 11.661 107.818 11.661C108.643 11.6349 109.46 11.8307 110.185 12.228C110.909 12.6255 111.514 13.2098 111.935 13.9202L109.232 15.3773C109.114 15.1007 108.916 14.8651 108.665 14.6998C108.413 14.5346 108.118 14.4471 107.818 14.4482C107.268 14.4482 106.93 14.6615 106.93 15.0391C106.934 16.2434 112.129 15.4402 112.129 19.3474Z" fill="#4B5563"/>
<path d="M123.702 11.9563V22.5163H120.534V21.5232C120.168 21.9614 119.704 22.3067 119.18 22.5307C118.655 22.7547 118.085 22.851 117.516 22.8118C115.382 22.8118 113.569 21.2918 113.569 18.4384V11.9563H116.737V17.9744C116.71 18.226 116.739 18.4802 116.821 18.7195C116.902 18.9589 117.036 19.1775 117.21 19.3602C117.385 19.543 117.598 19.6854 117.833 19.7776C118.068 19.8699 118.321 19.9098 118.574 19.8944C119.735 19.8944 120.537 19.2192 120.537 17.7195V11.9595L123.702 11.9563Z" fill="#4B5563"/>
<path d="M141.867 16.0319V22.5151H138.699V16.3061C138.699 15.2501 138.193 14.5749 137.179 14.5749C136.123 14.5749 135.531 15.3141 135.531 16.5599V22.5151H132.364V16.3061C132.364 15.2501 131.858 14.5749 130.843 14.5749C129.787 14.5749 129.196 15.3141 129.196 16.5599V22.5151H126.028V11.9551H129.196V12.9258C129.525 12.4952 129.956 12.1536 130.45 11.9325C130.945 11.7113 131.486 11.6175 132.026 11.6597C132.568 11.6331 133.108 11.7476 133.593 11.9917C134.077 12.2358 134.49 12.6014 134.792 13.0527C135.143 12.5805 135.608 12.2051 136.144 11.9614C136.679 11.7178 137.268 11.614 137.854 11.6597C140.279 11.6607 141.867 13.3919 141.867 16.0319Z" fill="#4B5563"/>
<path d="M144.546 11.8913C145.844 11.8913 146.897 10.8387 146.897 9.54039C146.897 8.242 145.844 7.18945 144.546 7.18945C143.248 7.18945 142.195 8.242 142.195 9.54039C142.195 10.8387 143.248 11.8913 144.546 11.8913Z" fill="#4B5563"/>
</svg>
