<svg width="154" height="32" viewBox="0 0 154 32" fill="none" xmlns="http://www.w3.org/2000/svg">
<g clip-path="url(#clip0_2005_21875)">
<path d="M20.0114 6.44034C20.5083 5.93986 21.1832 5.65869 21.886 5.65869C25.048 5.65869 28.0278 5.65869 30.9622 5.65869C36.8643 5.65871 39.8197 12.8452 35.6464 17.0482L26.5558 26.2033C26.1385 26.6237 25.4249 26.326 25.4249 25.7315V17.668L26.4754 16.61C27.3101 15.7694 26.719 14.3321 25.5386 14.3321H12.1753L20.0114 6.44034Z" fill="#3B82F6"/>
<path d="M17.5887 25.5598C17.0918 26.0603 16.4169 26.3415 15.7141 26.3415C12.5522 26.3415 9.57236 26.3415 6.6379 26.3415C0.735853 26.3415 -2.21961 19.155 1.95376 14.952L11.0443 5.79685C11.4617 5.37655 12.1753 5.67422 12.1753 6.26862L12.1753 14.3321L11.1247 15.3902C10.29 16.2308 10.8812 17.6681 12.0616 17.6681L25.4249 17.668L17.5887 25.5598Z" fill="#3B82F6"/>
<path d="M97.7459 10.831V21.9106H101.069V10.831H97.7459Z" fill="#030712"/>
<path d="M97.9774 8.98784C98.3702 9.37223 98.8501 9.56446 99.4183 9.56446C99.9859 9.56446 100.463 9.37223 100.848 8.98784C101.241 8.6034 101.437 8.1366 101.437 7.58743C101.437 7.02452 101.241 6.55429 100.848 6.17673C100.463 5.79231 99.9859 5.6001 99.4183 5.6001C98.8501 5.6001 98.3702 5.79231 97.9774 6.17673C97.5847 6.55429 97.3883 7.02452 97.3883 7.58743C97.3883 8.1366 97.5847 8.6034 97.9774 8.98784Z" fill="#030712"/>
<path fill-rule="evenodd" clip-rule="evenodd" d="M102.944 26.2354V10.831H106.099V11.9328H106.14C106.339 11.7411 106.553 11.566 106.783 11.4077C107.526 10.8996 108.381 10.6457 109.349 10.6457C110.197 10.6457 111.007 10.8619 111.778 11.2944C112.556 11.7268 113.187 12.3687 113.671 13.2199C114.154 14.0712 114.389 15.1318 114.376 16.4017C114.383 17.3628 114.246 18.2003 113.965 18.9142C113.685 19.6213 113.306 20.2082 112.83 20.675C112.353 21.1418 111.82 21.4919 111.231 21.7253C110.642 21.9587 110.046 22.0754 109.443 22.0754C108.49 22.0754 107.634 21.8145 106.877 21.2928C106.686 21.1597 106.506 21.0156 106.336 20.8603H106.267V26.2354H102.944ZM108.665 19.3569C109.156 19.3501 109.587 19.2231 109.959 18.976C110.33 18.7288 110.621 18.3787 110.831 17.9257C111.042 17.4726 111.144 16.944 111.136 16.3399C111.144 15.7221 111.038 15.1935 110.821 14.7542C110.611 14.308 110.313 13.9681 109.927 13.7348C109.542 13.4945 109.1 13.3778 108.602 13.3847C108.132 13.3778 107.711 13.4911 107.34 13.7245C106.968 13.9579 106.674 14.2977 106.457 14.7439C106.239 15.1832 106.131 15.7152 106.131 16.3399C106.131 16.944 106.239 17.4726 106.457 17.9257C106.681 18.3787 106.982 18.7288 107.361 18.976C107.74 19.2231 108.174 19.3501 108.665 19.3569Z" fill="#030712"/>
<path d="M117.575 21.7355C118.192 21.9621 118.837 22.0753 119.51 22.0753C120.282 22.0753 120.986 21.9278 121.624 21.6326C122.269 21.3374 122.784 20.9255 123.17 20.3969C123.563 19.8615 123.759 19.2471 123.759 18.5538C123.759 18.0046 123.64 17.5412 123.402 17.1637C123.17 16.7861 122.875 16.4772 122.518 16.2369C122.167 15.9967 121.806 15.8079 121.435 15.6706C121.063 15.5264 120.737 15.4166 120.457 15.3411C120.092 15.2381 119.742 15.1317 119.405 15.0219C119.069 14.9121 118.792 14.7816 118.574 14.6306C118.357 14.4796 118.248 14.2805 118.248 14.0333C118.248 13.7863 118.357 13.5803 118.574 13.4155C118.792 13.2508 119.065 13.1684 119.395 13.1684C119.787 13.1684 120.11 13.2714 120.362 13.4773C120.622 13.6832 120.818 13.8961 120.951 14.1157L123.506 13.0345C123.184 12.3206 122.637 11.7474 121.866 11.3149C121.102 10.8825 120.239 10.6662 119.279 10.6662C118.508 10.6662 117.821 10.807 117.218 11.0884C116.622 11.3698 116.149 11.7612 115.798 12.2623C115.454 12.7565 115.283 13.3297 115.283 13.9819C115.283 14.5997 115.43 15.1249 115.724 15.5573C116.019 15.9898 116.401 16.3467 116.871 16.6282C117.347 16.9028 117.852 17.119 118.385 17.277C118.617 17.3387 118.869 17.4073 119.143 17.4829C119.423 17.5584 119.689 17.6476 119.942 17.7506C120.194 17.8536 120.401 17.9771 120.562 18.1213C120.723 18.2655 120.804 18.4371 120.804 18.6362C120.804 18.794 120.748 18.9416 120.635 19.0789C120.531 19.2162 120.383 19.3295 120.194 19.4187C120.004 19.5011 119.784 19.5423 119.531 19.5423C119.055 19.5423 118.641 19.3981 118.29 19.1098C117.94 18.8215 117.677 18.516 117.502 18.1934L114.894 19.3157C115.132 19.8718 115.486 20.3592 115.956 20.7779C116.425 21.1898 116.965 21.509 117.575 21.7355Z" fill="#030712"/>
<path d="M137.268 21.9106V10.831H140.433V12.2417H140.491C140.739 11.9046 141.017 11.6197 141.327 11.387C141.958 10.9065 142.705 10.6662 143.567 10.6662C144.282 10.6662 144.889 10.8378 145.387 11.1811C145.77 11.4369 146.083 11.7802 146.326 12.2108H146.385C146.743 11.7636 147.178 11.4134 147.69 11.1605C148.356 10.831 149.081 10.6662 149.867 10.6662C150.616 10.6662 151.234 10.7967 151.717 11.0575C152.201 11.3115 152.58 11.6479 152.853 12.0666C153.126 12.4785 153.319 12.9316 153.431 13.4259C153.544 13.9132 153.6 14.3869 153.6 14.8468V21.9106H150.255V15.2484C150.255 14.6443 150.126 14.181 149.867 13.8583C149.614 13.5288 149.242 13.3641 148.752 13.3641C148.429 13.3641 148.142 13.4362 147.889 13.5803C147.644 13.7176 147.448 13.9269 147.301 14.2084C147.16 14.4899 147.09 14.8365 147.09 15.2484V21.9106H143.767V15.2484C143.767 14.6443 143.637 14.181 143.378 13.8583C143.119 13.5288 142.743 13.3641 142.253 13.3641C141.776 13.3641 141.38 13.5254 141.064 13.848C140.749 14.1638 140.591 14.6374 140.591 15.269V21.9106H137.268Z" fill="#030712"/>
<path d="M129.136 22.0753C128.357 22.0753 127.649 21.914 127.012 21.5914C126.373 21.2619 125.865 20.7814 125.487 20.1498C125.115 19.5114 124.929 18.7254 124.929 17.7918V10.831H128.252V17.3593C128.252 17.9977 128.421 18.4851 128.757 18.8215C129.101 19.151 129.518 19.3158 130.009 19.3158C130.373 19.3158 130.692 19.2368 130.966 19.0789C131.246 18.9211 131.463 18.698 131.618 18.4096C131.779 18.1144 131.859 17.7643 131.859 17.3593V10.831H135.183V18.0286C135.183 18.4268 135.243 18.7151 135.361 18.8936C135.481 19.072 135.722 19.2265 136.087 19.3569L134.909 22.0753C134.075 21.8626 133.465 21.5846 133.08 21.2413C132.885 21.0684 132.738 20.8693 132.638 20.6441H132.554C132.26 20.9331 131.934 21.1906 131.576 21.4164C130.867 21.8557 130.054 22.0753 129.136 22.0753Z" fill="#030712"/>
<path fill-rule="evenodd" clip-rule="evenodd" d="M90.5502 22.0753C89.463 22.0753 88.4709 21.8317 87.574 21.3443C86.6832 20.8569 85.9718 20.1841 85.4387 19.326C84.913 18.4679 84.6504 17.4794 84.6504 16.3605C84.6504 15.2416 84.913 14.253 85.4387 13.3949C85.9718 12.5369 86.6832 11.8675 87.574 11.387C88.4709 10.9065 89.463 10.6662 90.5502 10.6662C91.6577 10.6662 92.6565 10.9065 93.5473 11.387C94.4375 11.8675 95.1421 12.5369 95.661 13.3949C96.1868 14.253 96.4494 15.2416 96.4494 16.3605C96.4494 17.4794 96.1868 18.4679 95.661 19.326C95.1421 20.1841 94.4341 20.8569 93.5366 21.3443C92.6464 21.8317 91.6509 22.0753 90.5502 22.0753ZM90.5502 19.2951C91.0686 19.2951 91.5349 19.1716 91.9486 18.9245C92.3623 18.6773 92.6882 18.3341 92.9265 17.8947C93.1647 17.4554 93.2841 16.944 93.2841 16.3605C93.2841 15.7976 93.1687 15.2965 92.9372 14.8571C92.7058 14.4178 92.3866 14.0746 91.9803 13.8274C91.5734 13.5734 91.1036 13.4464 90.5711 13.4464C90.0454 13.4464 89.5717 13.57 89.1512 13.8171C88.7375 14.0574 88.4115 14.3972 88.1733 14.8365C87.935 15.2759 87.8156 15.7839 87.8156 16.3605C87.8156 16.944 87.935 17.4554 88.1733 17.8947C88.4183 18.3341 88.7483 18.6773 89.1619 18.9245C89.5756 19.1716 90.038 19.2951 90.5502 19.2951Z" fill="#030712"/>
<path fill-rule="evenodd" clip-rule="evenodd" d="M74.8146 26.0603C75.5995 26.2868 76.462 26.4001 77.4015 26.4001C78.2781 26.4001 79.0806 26.2903 79.81 26.0706C80.5389 25.8578 81.17 25.5352 81.7025 25.1027C82.2424 24.6702 82.6595 24.1348 82.9543 23.4963C83.2486 22.8579 83.3958 22.1166 83.3958 21.2722V10.8207H80.3777V11.9019H80.3148C80.1139 11.7136 79.8966 11.542 79.6623 11.387C78.9334 10.8996 78.0817 10.656 77.1072 10.656C76.2656 10.656 75.4558 10.8653 74.6776 11.2841C73.8995 11.6959 73.2617 12.3138 72.7637 13.1375C72.273 13.9544 72.0274 14.9807 72.0274 16.2164C72.0274 17.1431 72.1712 17.9497 72.4587 18.6362C72.7461 19.3226 73.1281 19.8958 73.6052 20.3558C74.0891 20.8088 74.625 21.1486 75.2142 21.3751C75.8033 21.5948 76.3952 21.7047 76.9912 21.7047C77.9521 21.7047 78.8072 21.4472 79.5576 20.9324C79.7948 20.7673 80.0166 20.5854 80.222 20.3866H80.2724V21.4575C80.2724 21.9861 80.0975 22.4117 79.7467 22.7343C79.3963 23.0639 78.9719 23.3042 78.4745 23.4552C77.9764 23.6062 77.496 23.6817 77.0336 23.6817C76.4937 23.6817 75.9606 23.5959 75.4349 23.4243C74.9159 23.2595 74.4603 23.0604 74.0681 22.8271L72.9742 25.3807C73.423 25.6141 74.0365 25.8407 74.8146 26.0603ZM79.1473 18.6876C78.7619 18.9348 78.3166 19.0583 77.8118 19.0583C77.3137 19.0583 76.8757 18.9348 76.4971 18.6876C76.1185 18.4336 75.8208 18.087 75.6035 17.6476C75.3862 17.2014 75.277 16.69 75.277 16.1134C75.277 15.5367 75.3862 15.0356 75.6035 14.61C75.8276 14.1844 76.136 13.8583 76.5288 13.6318C76.9216 13.3984 77.3664 13.2817 77.8644 13.2817C78.3618 13.2817 78.8004 13.3949 79.179 13.6215C79.5576 13.848 79.8553 14.1741 80.0726 14.5997C80.2899 15.0185 80.3986 15.523 80.3986 16.1134C80.3986 16.6968 80.2866 17.2117 80.0624 17.6579C79.8378 18.0973 79.5327 18.4405 79.1473 18.6876Z" fill="#030712"/>
<path fill-rule="evenodd" clip-rule="evenodd" d="M65.2838 22.0753C64.1972 22.0753 63.2051 21.8317 62.3076 21.3443C61.4174 20.8569 60.7054 20.1841 60.1729 19.326C59.6472 18.4679 59.384 17.4794 59.384 16.3605C59.384 15.2416 59.6472 14.253 60.1729 13.3949C60.7054 12.5369 61.4174 11.8675 62.3076 11.387C63.2051 10.9065 64.1972 10.6662 65.2838 10.6662C66.3913 10.6662 67.3907 10.9065 68.2809 11.387C69.1711 11.8675 69.8757 12.5369 70.3947 13.3949C70.9204 14.253 71.1836 15.2416 71.1836 16.3605C71.1836 17.4794 70.9204 18.4679 70.3947 19.326C69.8757 20.1841 69.1677 20.8569 68.2702 21.3443C67.38 21.8317 66.3845 22.0753 65.2838 22.0753ZM65.2838 19.2951C65.8027 19.2951 66.2685 19.1716 66.6822 18.9245C67.0959 18.6773 67.4219 18.3341 67.6607 17.8947C67.8989 17.4554 68.0178 16.944 68.0178 16.3605C68.0178 15.7976 67.9023 15.2965 67.6709 14.8571C67.4394 14.4178 67.1208 14.0746 66.7139 13.8274C66.3076 13.5734 65.8373 13.4464 65.3047 13.4464C64.779 13.4464 64.3059 13.57 63.8848 13.8171C63.4711 14.0574 63.1452 14.3972 62.9069 14.8365C62.6686 15.2759 62.5492 15.7839 62.5492 16.3605C62.5492 16.944 62.6686 17.4554 62.9069 17.8947C63.1525 18.3341 63.4819 18.6773 63.8956 18.9245C64.3093 19.1716 64.7716 19.2951 65.2838 19.2951Z" fill="#030712"/>
<path d="M50.4001 6.73276V21.9106H59.4338V18.9039H53.8494V6.73276H50.4001Z" fill="#030712"/>
</g>
<defs>
<clipPath id="clip0_2005_21875">
<rect width="153.6" height="32" fill="white"/>
</clipPath>
</defs>
</svg>
