<svg width="800" height="800" viewBox="0 0 800 800" fill="none" xmlns="http://www.w3.org/2000/svg">
<path opacity="0.1" d="M379.046 221.452C371.172 153.975 362.858 82.7288 362.858 0H437.142C437.142 81.7996 428.868 152.955 421.004 220.508C414.598 275.56 408.47 328.22 407.332 382.3C444.632 343.394 477.26 302.14 511.44 258.926C553.582 205.646 598.086 149.389 656.58 90.8928L709.108 143.421C651.266 201.262 595.094 245.722 541.768 287.932L541.718 287.97C498.282 322.356 456.73 355.248 417.7 392.668C471.58 391.53 523.822 385.434 578.544 379.048C646.022 371.172 717.272 362.858 800 362.858V437.142C718.204 437.142 647.048 428.864 579.498 421.004L579.448 421C524.408 414.596 471.764 408.472 417.7 407.332C456.58 444.604 497.812 477.218 540.998 511.374L541.066 511.432C594.348 553.578 650.608 598.078 709.108 656.58L656.58 709.108C598.738 651.268 554.28 595.1 512.076 541.778L511.976 541.64L511.892 541.53C477.55 498.162 444.698 456.676 407.332 417.7C408.47 471.78 414.598 524.44 421.004 579.492C428.868 647.046 437.142 718.2 437.142 800H362.858C362.858 717.272 371.172 646.026 379.046 578.548L379.062 578.438C385.44 523.754 391.53 471.544 392.668 417.7C355.302 456.676 322.45 498.162 288.108 541.53L288.024 541.64L287.924 541.778C245.72 595.1 201.262 651.268 143.421 709.108L90.8928 656.58C149.392 598.078 205.652 553.578 258.934 511.432L259.002 511.374C302.188 477.218 343.42 444.604 382.3 407.332C328.22 408.474 275.558 414.6 220.502 421.004C152.952 428.864 81.7968 437.142 0 437.142V362.858C82.7288 362.858 153.979 371.172 221.456 379.048C276.178 385.434 328.42 391.53 382.3 392.668C343.254 355.234 301.686 322.332 258.232 287.932C204.906 245.722 148.733 201.262 90.8928 143.421L143.421 90.8928C201.914 149.389 246.418 205.646 288.56 258.926C322.74 302.138 355.368 343.392 392.668 382.296C391.53 328.454 385.44 276.246 379.062 221.562L379.046 221.452Z" fill="#2DD4BF"/>
</svg>
